<svg version="1.1" id="Layer_1" xmlns="http://www.w3.org/2000/svg" xmlns:xlink="http://www.w3.org/1999/xlink" x="0px" y="0px" width="100%" viewBox="0 0 200 200" enable-background="new 0 0 200 200" xml:space="preserve">
<path fill="#FFFFFF" opacity="1.000000" stroke="none" d=" M139.983551,173.000046   C109.854752,173.000046 80.222412,173.000046 49.029194,173.000046   C50.442322,170.242203 51.493423,168.214706 52.521057,166.175385   C53.036079,165.153275 53.931770,164.111710 53.936871,163.075394   C54.024529,145.268372 53.999886,127.460793 53.999886,109.256638   C51.132648,109.256638 48.391380,109.256638 45.357109,109.256638   C45.214470,107.802055 45.026020,106.711487 45.013775,105.618927   C44.940914,99.118210 44.954601,99.118065 51.420761,99.001106   C55.988861,98.918480 56.847424,97.246811 56.390663,92.612656   C56.030891,88.962578 55.843437,86.056427 53.342850,82.641129   C50.219646,78.375458 55.309193,72.005898 60.902397,72.000839   C65.199600,71.996948 69.496803,72.000069 73.956696,72.000069   C73.956696,69.937340 73.956696,68.299835 73.956696,66.662338   C74.291283,66.923088 74.625870,67.183846 74.960449,67.444603   C80.536819,61.563148 86.481720,55.968613 91.437157,49.603729   C92.717415,47.959335 91.546104,43.585472 90.325226,41.026291   C88.861557,37.958160 88.900795,36.092754 91.530380,33.886490   C93.768562,32.008614 95.563896,29.602926 98.000748,26.944672   C98.954842,29.686255 99.544640,31.381023 100.134438,33.075790   C100.559784,33.145580 100.985123,33.215366 101.410469,33.285152   C102.199150,31.567198 102.987831,29.849245 104.271637,27.052790   C106.452400,29.505436 108.158775,32.009281 110.416382,33.829403   C113.987183,36.708233 112.408249,38.817432 110.822304,42.121071   C109.700562,44.457729 110.214920,48.991135 111.873764,50.980640   C116.432091,56.447609 122.107216,60.968388 127.034615,66.154152   C128.140686,67.318222 127.998886,69.667976 128.558334,72.000381   C132.937744,72.000381 137.756821,71.711388 142.510513,72.142876   C144.407410,72.315048 147.220901,73.703323 147.749069,75.198074   C148.736435,77.992378 151.078613,81.343956 147.343918,84.291092   C143.573196,87.266678 145.769150,91.589539 145.826416,95.129898   C145.881790,98.552406 149.247971,99.480904 152.559723,99.003738   C156.149658,98.486496 157.382675,100.196800 157.028381,103.602600   C156.860031,105.220863 156.999466,106.871147 156.999466,108.885643   C153.995453,108.885643 151.247879,108.885643 148.000061,108.885643   C148.000061,117.862877 148.000046,126.468262 148.000046,135.073654   C148.000046,143.234482 147.985123,151.395340 148.007904,159.556107   C148.016235,162.535995 147.312653,165.603271 150.842133,167.631363   C151.920059,168.250763 151.904160,170.773727 152.558151,173.000046   C148.082001,173.000046 144.280991,173.000046 139.983551,173.000046  M134.996170,145.287430   C134.996170,133.874542 134.996170,122.461655 134.996170,111.366798   C129.861679,111.366798 125.451141,111.366798 121.192383,111.366798   C121.192383,123.354813 121.192383,134.975540 121.192383,147.311615   C125.927254,146.946671 130.435883,146.599167 134.996170,145.287430  M72.557922,164.999939   C75.320763,164.999939 78.083603,164.999939 80.689972,164.999939   C80.689972,152.640137 80.689972,140.900009 80.689972,129.313965   C75.968658,129.313965 71.562096,129.313965 67.140152,129.313965   C67.140152,141.248169 67.140152,152.867386 67.140152,164.999939   C68.711372,164.999939 70.150139,164.999939 72.557922,164.999939  M94.000069,130.380615   C94.000069,131.823166 94.000069,133.265732 94.000069,134.752106   C98.900177,134.752106 103.304947,134.752106 107.751022,134.752106   C107.751022,126.764244 107.751022,119.026695 107.751022,111.251389   C103.092873,111.251389 98.687820,111.251389 94.000061,111.251389   C94.000061,117.465660 94.000061,123.433090 94.000069,130.380615  M94.000061,150.529419   C94.000061,155.291916 94.000061,160.054413 94.000061,164.701569   C99.002129,164.701569 103.407501,164.701569 107.702164,164.701569   C107.702164,156.661072 107.702164,148.922165 107.702164,141.300507   C102.991920,141.300507 98.586563,141.300507 94.000061,141.300507   C94.000061,144.246567 94.000061,146.893692 94.000061,150.529419  M134.268875,152.057480   C129.889252,152.057480 125.509621,152.057480 121.283348,152.057480   C121.283348,156.696609 121.283348,160.741623 121.283348,164.759613   C125.947739,164.759613 130.324478,164.759613 134.943207,164.759613   C134.943207,160.597397 134.943207,156.669128 134.268875,152.057480  M80.999649,120.352188   C80.999649,117.284927 80.999649,114.217667 80.999649,111.261734   C76.005249,111.261734 71.627075,111.261734 67.224670,111.261734   C67.224670,115.240669 67.224670,118.953880 67.224670,122.996414   C71.365074,122.996414 75.292519,123.069183 79.211609,122.920906   C79.825836,122.897667 80.402092,121.870354 80.999649,120.352188  z"/>
<path fill="#FFFFFF" opacity="1.000000" stroke="none" d=" M166.484131,128.000473   C174.088181,128.000046 181.242554,127.862915 188.385117,128.092712   C190.262207,128.153107 193.721741,129.472031 193.681595,130.003510   C193.501816,132.382996 192.909866,135.231354 191.370499,136.897949   C188.654434,139.838516 185.275024,142.243454 181.916977,144.489334   C179.280365,146.252686 176.523529,147.143951 173.577454,144.198334   C170.613235,141.234589 166.830765,139.098434 163.799179,136.190613   C159.579849,132.143539 160.335190,129.817673 166.484131,128.000473  z"/>
<path fill="#FFFFFF" opacity="1.000000" stroke="none" d=" M26.975325,145.998886   C21.653435,145.998810 16.821848,146.105392 12.000656,145.928558   C10.688407,145.880432 8.463016,145.173843 8.308691,144.427750   C7.986926,142.872147 8.183320,140.481232 9.197834,139.505066   C13.304348,135.553757 17.696608,131.868774 22.252281,128.443069   C23.075365,127.824142 25.460039,128.454636 26.612909,129.249390   C30.869175,132.183472 35.036449,135.283142 38.947685,138.656235   C39.957493,139.527100 40.590073,141.862106 40.159039,143.090515   C39.720978,144.338928 37.844433,145.667984 36.440498,145.870377   C33.505005,146.293549 30.466017,145.998779 26.975325,145.998886  z"/>
<path fill="#000000" opacity="1.000000" stroke="none" d=" M134.970337,145.769547   C130.435883,146.599167 125.927254,146.946671 121.192383,147.311615   C121.192383,134.975540 121.192383,123.354813 121.192383,111.366798   C125.451141,111.366798 129.861679,111.366798 134.996170,111.366798   C134.996170,122.461655 134.996170,133.874542 134.970337,145.769547  z"/>
<path fill="#000000" opacity="1.000000" stroke="none" d=" M72.073410,164.999939   C70.150139,164.999939 68.711372,164.999939 67.140152,164.999939   C67.140152,152.867386 67.140152,141.248169 67.140152,129.313965   C71.562096,129.313965 75.968658,129.313965 80.689972,129.313965   C80.689972,140.900009 80.689972,152.640137 80.689972,164.999939   C78.083603,164.999939 75.320763,164.999939 72.073410,164.999939  z"/>
<path fill="#000000" opacity="1.000000" stroke="none" d=" M94.000061,129.890564   C94.000061,123.433090 94.000061,117.465660 94.000061,111.251389   C98.687820,111.251389 103.092873,111.251389 107.751022,111.251389   C107.751022,119.026695 107.751022,126.764244 107.751022,134.752106   C103.304947,134.752106 98.900177,134.752106 94.000069,134.752106   C94.000069,133.265732 94.000069,131.823166 94.000061,129.890564  z"/>
<path fill="#000000" opacity="1.000000" stroke="none" d=" M94.000061,150.035110   C94.000061,146.893692 94.000061,144.246567 94.000061,141.300507   C98.586563,141.300507 102.991920,141.300507 107.702164,141.300507   C107.702164,148.922165 107.702164,156.661072 107.702164,164.701569   C103.407501,164.701569 99.002129,164.701569 94.000061,164.701569   C94.000061,160.054413 94.000061,155.291916 94.000061,150.035110  z"/>
<path fill="#000000" opacity="1.000000" stroke="none" d=" M134.606049,152.399170   C134.943207,156.669128 134.943207,160.597397 134.943207,164.759613   C130.324478,164.759613 125.947739,164.759613 121.283348,164.759613   C121.283348,160.741623 121.283348,156.696609 121.283348,152.057480   C125.509621,152.057480 129.889252,152.057480 134.606049,152.399170  z"/>
<path fill="#000000" opacity="1.000000" stroke="none" d=" M80.997780,120.829758   C80.402092,121.870354 79.825836,122.897667 79.211609,122.920906   C75.292519,123.069183 71.365074,122.996414 67.224670,122.996414   C67.224670,118.953880 67.224670,115.240669 67.224670,111.261734   C71.627075,111.261734 76.005249,111.261734 80.999649,111.261734   C80.999649,114.217667 80.999649,117.284927 80.997780,120.829758  z"/>
</svg>