<!--Generated by IcoMoon.io and SVG OMG-->
<svg xmlns="http://www.w3.org/2000/svg" width="1024" height="1024" viewBox="0 0 1024 1024">
  <path fill="#FAFAFA" d="M841 363c13 13 21 28 18 49-1 8-3 17-6 25-6 12-15 21-27 26-9 4-18 7-28 7-7 0-12-3-16-8l-36-38a18 18 0 0 1-6-13c0-9 3-13 12-15l34-8c16-4 30-10 42-22 3-3 6-5 13-3zM184 661a54 54 0 0 1-20-43c0-13 3-24 9-35l-1 1c9-17 25-25 43-29l5-1c9-2 16 1 22 7l37 40c5 5 6 11 4 17-2 5-6 8-11 9l-40 10c-13 4-26 9-36 20-3 3-7 5-12 4zm140 36-11 3c-13 3-25 7-36 13h1c-8 4-14 9-20 14-2 1-3 4-4 6l-5 7c-8-3-15-7-22-12l-28-27c-6-5-7-11-5-18 4-12 11-21 20-27h1c18-12 39-16 59-18 5 3 5 6 6 9 0 9 3 16 9 22 8 9 16 16 27 21l8 4zm422-314-2-8c0-7-3-13-7-18-8-9-17-17-28-22l-10-6c3-4 6-5 9-5 13-3 25-7 36-12h-1c8-4 16-9 22-15 2-1 3-3 4-6h1l3-6c7 0 12 3 17 6 13 9 25 21 36 33 5 4 5 10 4 15-2 7-5 13-10 18-9 10-19 17-32 20l-23 6a36 36 0 0 1-19 0zM310 862l14 12a17 17 0 0 1 6 20 22 22 0 0 0 0 14c2 7 1 8-7 12a30 30 0 0 0-18-3 22 22 0 0 1-13-3l-40-22c-6-3-11-8-14-14-7-13-19-16-32-11l-13 7v-1l-11 10c-17-10-24-30-37-42 2-11 8-18 19-19l10-3c12-2 22 3 31 10l2 3v3h-17c-6 7-7 15-1 27l3-9c1-7 3-8 10-8l24 2 25 4c8 1 14 4 21 7l-1-1c12 6 24 9 36 5a9 9 0 0 1 3 0zm-58 6c1 4 2 9 8 11 1-7-3-9-8-11zm-87-34c7 6 7 6 13 3-3-3-7-4-13-3zm534-729 20 1h1c6 0 11 2 16 5l31 17c8 4 15 9 19 18 5 13 20 14 31 10 12-4 15-6 25-15l7 6 13 14v1l16 22c-2 11-8 18-21 18l-8 2c-11 2-21-2-29-9-2-2-4-3-2-7 6-2 13 3 18-2 4-7 3-16-1-24l-6 16a73 73 0 0 1-13 0h1l-45-6-18-6h1c-12-5-24-8-37-5h-1l-6-2-14-13a15 15 0 0 1-3-15v1l1-9-1-9c-2-6-1-7 5-9zm74 50-6-9-4-1c1 6 4 9 10 10zm73 29c5 6 6 6 12 4-3-4-7-6-12-4zM429 480l8 8 19 20c3 3 4 7 3 11-3 10-2 20-1 30l1 16-1 7c-5 2-8 0-11-2-5-3-10-4-16-4l-28-2-19 2h1c-9 2-11 1-14-8l-4-9c-6-14-4-27 3-40a64 64 0 0 1 52-30l7 1zm136-29c6-1 9 0 12 3a22 22 0 0 0 13 4h1l15 1h-1c10 2 19 1 29-1l15-1 3 6 4 12c2 5 3 10 3 17 0 12-5 24-14 32a79 79 0 0 1-40 20c-6 1-11-1-15-5l-21-22c-4-5-5-9-4-15a95 95 0 0 0 0-26v1a123 123 0 0 1 0-26zm-29 283c-5 9-11 17-23 20-15 3-28 12-40 22l-11 8-8 5h-1c-9 2-19-2-28-4-6-1-11-8-14-14a18 18 0 0 1 0-19v1c7-13 16-23 27-31l3-2c15-6 31-10 47-10l5 1c17 7 31 15 45 23h-2zm-48-443c4-10 10-16 19-19 20-5 36-16 51-29 7-6 14-8 23-6l11 1a24 24 0 0 1 18 38c-8 11-17 22-30 28a93 93 0 0 1-47 9l-3-1c-17-7-31-14-44-22l2 1zm-3 136 7-9c14-13 17-29 15-47l-1-8a8 8 0 0 1 9-1l61 19 2 1c3 8 5 17 4 26-2 21-14 34-33 41a57 57 0 0 1-47-5c-7-4-13-10-17-17zm118 266-6-2 1 1-52-20c-5-2-9-6-12-11-8-12-6-24-5-37 1-5 4-10 8-13a45 45 0 0 1 42-11c3 0 6 1 8 3l29 21c3 5 3 9 1 13l-4 9a47 47 0 0 0-5 35c1 5 0 9-5 12z"/>
  <path fill="#FAFAFA" d="M416 333c6-3 10-1 14 0l45 18c12 4 22 19 21 32l-1 10c0 9-4 16-11 21-12 9-24 14-39 9a780 780 0 0 1-35-23c-5-3-6-6-4-12l4-9c6-11 8-24 6-37a46 46 0 0 1 1-10l-1 1zm-53 136-7 1-7-1h1c-10-4-19-3-29-3l-11 4-17 8c-2-3-5-4-6-7l-5-19v-11c-2-19 7-32 20-44 2-1 5-2 6-4 8-7 18-8 28-5 13 4 23 10 33 28-2 8-6 17-7 25s1 18 1 28zm175 130-7 8a54 54 0 0 0-15 47l1 7-1 3a12 12 0 0 1-4 0l-62-18-4-2c-10-25-3-50 18-63l3-2c19-6 38-7 56 3 7 3 12 8 15 17zm196-53 6 14a77 77 0 0 1 1 33h1c-2 13-10 24-20 32l-10 7c-6 5-13 6-21 4-16-3-29-13-37-27v-1c3-9 6-17 7-26s0-17-1-26a12 12 0 0 1 12-2l16 3c8 2 17 1 24-3l12-5v-1l10-2zM555 323c2-6 7-7 12-8l23-9-2 1c9-4 17-12 23-19 7-9 14-10 24-7l13 4c23 9 34 35 23 56l-10 13c-8 8-17 9-27 5l-51-23-28-13zm-85 378-9 6-5 2c-18 2-31 13-43 26l-9 9c-17 0-31-4-42-14a40 40 0 0 1-2-58c9-10 19-12 33-7l72 33 5 3zM352 551c-18 0-36 0-53 8l-5-7-13-23c-5-10-4-20 3-29a59 59 0 0 1 49-24l21 2h-1c8 2 14 7 18 14l-6 9c-9 12-15 25-13 40a82 82 0 0 1 0 10zm374-86 17 32c5 10 3 19-4 26a61 61 0 0 1-50 24c-9 0-19 0-27-6-4-3-8-5-8-10l15-27c4-9 2-20 2-31l7-1a92 92 0 0 0 44-6h-1l5-1zm38-189c2 9-3 13-8 17-7 7-16 12-26 14v1l-27 6c-8 2-12 0-15-6-9-19-25-28-43-36l-7-3c-2-4 1-5 4-6l19-4c9-2 17-5 24-11 6-6 13-6 21-3l45 22 13 9zM387 758l-6 3-24 5c-7 1-12 4-17 8-4 3-9 6-14 7l-8-3-40-19-17-10c-3-6-2-10 1-13 5-6 11-11 18-14v-1a146 146 0 0 1 46-11h6l14 20c6 6 12 10 19 14h1c6 5 14 8 21 11zM224 540l-13 4c-16 3-28 13-39 25l-7 7c-8 0-15-4-19-10-12-18-15-37-4-56l8-12c8-12 25-15 36-4l22 26h1l15 20zm577-57c11-4 23-4 31-12l27-23c6-2 13 2 17 8 12 16 17 33 8 52l-12 20v-1a23 23 0 0 1-32 4l-11-10-24-31-4-6v-1zM442 588c-7 16-12 32-7 51h-10 1c-28-6-52-13-75-22l4 1c-1-13 2-24 13-32 8-6 19-10 30-11 12 0 23-1 33 4 4 2 9 3 11 9zm140-149 2-10a67 67 0 0 0 6-43v-1c10-2 56 10 79 21 0 10-1 20-9 28-11 9-23 15-37 14h-12c-10 1-19-3-29-9zM357 292c14 10 28 18 40 29 10 8 16 20 12 34l-2 13c-3 7-5 11-13 16l-10-6h1a239 239 0 0 1-38-40c-2-15-3-31 8-44l2-2zm320 393c1 17 3 33-10 46l-13-8-26-19a36 36 0 0 1-13-39l4-13c1-4 3-8 6-10 6-3 11 0 15 3 11 10 20 20 29 31v1l8 8zM209 887c6 10 14 11 24 12l6-1h-1 3l12 3 21 14c7 5 14 8 22 12v8c-6 7-15 13-26 14a28 28 0 0 1-14-2c-9-3-17-7-24-11h1l-18-7-1-1c-23-7-31-30-22-49l9-1 8 9zm38 37c-8-6-16-6-22-9l-20-10c-1 4 1 6 3 8 6 5 13 10 21 12h1l10 2h1l6-3zm567-788c-4-7-10-8-17-10a8 8 0 0 0-4-1c-12 2-21-2-31-8l-28-17c-9-5-9-10-2-16 12-9 24-12 38-7l23 11 14 6 6 2c16 6 28 24 19 48h-10l-7-8h-1zm5-17c0-7-4-9-8-12-9-7-19-12-31-11l-2 4c6 5 14 5 21 8l20 11zM183 370c-6-2-6-6-7-11 0-11-2-22-5-31-1-6-4-11-8-15a13 13 0 0 1-2-16l12-22c2-5 7-8 13-9 10-2 20 1 29 6l4 4c-13 27-20 56-29 84-2 4-2 8-7 10zm655 283c8 2 8 3 9 10l4 25c1 9 5 17 10 23 4 5 4 10 1 15l-10 20c-6 10-14 14-26 11-7-2-14-2-20-8l2-9v1c10-23 17-48 24-72l6-16zm1-111c6-2 9 2 11 6l17 32 8 11 7 5 1 4c-4 17-12 32-29 39a18 18 0 0 1-8 1c-4 0-7-3-8-6l-2-12c1-17 0-33-4-48-3-12 0-20 7-32zm-653-61c-7 2-10-1-12-5l-17-32-9-11-7-7a13 13 0 0 1 0-4c5-14 10-28 24-35 7-5 14-4 21 2l1 17v1c0 14 0 28 4 41 4 12 0 22-5 33zm614 276a61 61 0 0 0 39 9l-17 22a478 478 0 0 1-48 47l-1 1-8 3-3-2c-4-9-4-19-3-29 0-3 2-6 5-8 9-9 18-19 25-30v-1l11-12zM263 186l3 27c0 4-3 8-6 11-10 9-19 20-27 32h-1l-7 9-19-7-18-2c2-7 7-13 11-18l30-33 21-17c3-3 7-4 13-2zm601 370 1-3v1c6-11 12-21 22-28 7-5 15-3 23-3 6 14 5 65-3 76-6 1-11-1-16-5-10-6-19-15-23-27l-4-11zm-750-56c-6-15-4-59 2-75h5c4 0 8 1 12 4 14 9 23 23 26 40-6 11-12 22-24 29l-9 2h-12zm186 114 8 5c15 11 32 22 50 31l2 1 4 3-4 3c-8 5-14 11-19 19-4 5-8 6-14 5-11-3-21-9-28-17h-1c-9-9-10-36-2-47l4-2v-1zm425-205c-2-1-5-1-7-3a289 289 0 0 0-57-36l26-27c14-2 33 7 41 19a42 42 0 0 1-3 47zM503 262l-2-7c-1-9-6-16-13-21l-12-11a6 6 0 0 1 6-5c16-2 31-5 47-5h29l10 1-2 5c-13 19-30 33-52 41l-10 2h-1zm-48 546 8-10c10-12 22-23 37-30 7-4 14-6 22-3l1 4v1c1 8 5 14 10 19l14 12c0 5-2 6-5 6a264 264 0 0 1-51 4h-35zM117 417c8-36 17-70 33-101 6 2 7 6 9 9 4 13 8 25 9 38 1 6 0 12-6 16-10 7-16 18-23 28l-8 11zm494 365h9c16 2 30 1 42-10l4-1c13 9 20 41 12 58-7 2-13 0-20-2-7-1-13-3-19-6h1c-6-2-11-6-14-12l-15-27zm295-174c-7 38-19 71-34 103l1-3c-3-2-6-5-8-9-4-12-8-25-10-39v-1c0-5 1-10 5-13 12-9 19-22 27-34 5-8 9-9 19-4zM346 193c16 1 30 5 43 12 3 2 6 4 8 8l16 28h-12c-14-2-27 0-39 9l-4 3c-13-10-20-43-12-60zm402 429c7 8 8 15 5 25-5 14-12 26-21 37v-1l-17 24-22-29 18-26 7-7c11-5 20-14 30-23zM310 317l21 28-20 28c-1 2-3 4-6 5-11 6-20 14-29 23-6-6-8-12-6-20 3-13 9-24 16-35v1l20-26 4-4zm81 86 15 11c1 10 1 20 3 29s7 17 11 25l-2 2-35 10-4-6a89 89 0 0 1-7-36c0-15 7-26 19-35z"/>
  <path fill="#FAFAFA" d="M638 726c12 10 19 22 26 34-25 25-61 23-82-11l29-7c9-3 19-8 27-16zM444 275c-23 2-42 7-57 22-10-6-23-23-27-35 7-7 18-12 29-14 17-3 33 1 44 16l11 11zm189 346-14-12c-2-9-2-19-5-28-2-9-7-17-10-26 12-5 32-10 39-9 7 16 11 32 7 50-3 10-9 18-17 25zm-31 167-26 9-6 2c-4 0-7-2-10-3l-19-15c-7-8-8-18-5-28 1-6 4-10 6-15 15 3 45 29 60 50zM422 236l29-11h4c3 0 6 0 8 2l14 10c18 14 15 36 2 49-22-12-41-29-57-50zm382 476-31-22c-8-6-11-14-7-24 3-6 3-14 9-20l7 2c8 6 18 10 28 13h1c3 0 6 1 7 5-1 9-9 38-14 46zM249 380c-14-11-29-15-44-20 3-17 9-33 13-50l12 8 20 15c9 7 11 14 7 25l-4 12-4 10zm77-195c-5-4-9-9-10-16l-3-18v-3c0-8 3-15 7-20 7-9 15-16 24-21h1l16-9a19 19 0 0 1 16-1l-2 3c-23 19-34 45-40 73l-1 7c-1 4-4 6-8 5zm320 742 6-7c17-16 29-36 34-60l4-15c0-4 2-6 6-8 7 5 11 12 12 20l2 12v6c0 9-3 17-9 23-8 9-16 17-27 21l-12 6c-4 3-9 3-16 2zM395 305c2-5 5-8 9-10a77 77 0 0 1 46-12h-1l7 2 36 24h-16c-13 1-26 3-38 7h1c-17 6-31 1-44-11zm234 415a72 72 0 0 1-58 20l-40-26h7c16 0 31-3 46-7l13-2c10 0 19 4 26 9l4 3 2 3zM556 36c-2 4-5 7-9 7-10 4-35 5-46 3-10-9-11-21-3-31 5-6 11-11 18-14h1c7-3 17-1 19 10 2 7 6 13 12 18l8 7zm-88 950c4-4 9-7 16-8l29-2c14-1 21 10 17 23-4 14-15 21-27 25-6 1-13-3-15-10-2-9-7-15-14-21l-6-6v-1zm210-744-10 5-22 6c-14 3-19 1-27-10-5-8-14-13-24-14l-6-1-11-3v-8l3-1c6-3 12-1 18-1 23 3 44 8 64 14h-3l12 4h-1c4 1 7 5 7 9zM345 781l7-3 29-8c9-2 16-1 22 8 5 7 11 13 20 16l14 2 10 3-1 8c-6 3-11 3-16 2-25-4-50-9-74-17-5-2-9-4-11-11zm-52-649h12l2 33 8 32-25 17c-6-1-6-5-7-8a115 115 0 0 1 2-54v1c2-7 3-15 8-21zm151 194c18-15 64-16 95 6l-1 2a229 229 0 0 1-50 11c-6 0-12-2-17-4l-18-7c-4-1-7-3-9-8zm135 374c-21 16-73 11-94-8l5-2h1c8-3 17-6 26-7 13-3 27-4 40 3l15 5c3 2 6 5 7 8v1zm157 108c11 19 7 66-6 83h-11l-3-33-8-31zm-526-29 4-1c4 0 8 2 11 4l27 26c5 5 9 9 15 10 10 3 18 8 26 14s11 13 13 23l-10 2c-6 0-12-2-17-5-13-8-25-17-32-31-6-12-15-21-26-29l-8-7c-2-1-2-4-3-6zm507-611c13-2 24 0 34 7l16 14 7 9 11 17c5 7 10 12 16 15l1 1 9 7 2 6c-6 3-10 1-14-3l-27-25c-4-5-8-9-15-11-11-2-20-8-28-15-7-5-10-13-12-22zM463 434l4-4 11 9c10 9 22 16 35 20a54 54 0 0 0 26 1h-1l11-1c7 12 9 35 3 45l-6-4-74-54c-4-4-8-6-9-12zm293 254c8 6 14 13 22 18l23 14c-5 13-12 24-18 35l-6-4c-9-9-17-18-23-29v-1l-4-7v-1l-2-8c0-4 2-8 4-11l4-6zM241 268c7 5 12 10 17 17l13 18v1c7 13 6 20-5 32-11-13-25-24-41-31h-1c-1-8 5-13 7-19s7-12 10-18zm441 145c16 9 34 32 35 43-13 13-46 9-57-6 0-3 1-5 3-7h-1l8-9c4-4 7-10 9-16l3-5zM344 284l-9 39c-23-27-40-55-48-88 4-2 5 1 7 2l21 23 21 17zm21 290-5 8c-7 8-14 16-17 27l-1 1c-13-6-34-31-36-43 14-12 45-10 59 7zm315 165 7-34 2-3c17 12 43 61 47 89l-7-6c-13-15-27-29-42-40l-1-1-6-5z"/>
  <path fill="#FAFAFA" d="M785 200a8 8 0 0 1 10 0l13 9 37 32 8 6h1c2 2 6 2 9 2l10-2c6-3 9-8 9-15l1-2 1-1 2 3 2 8c0 11-8 20-18 22l-13 2-4 9c-6 20-26 21-39 8h14-1c12 2 19-8 18-18s-5-19-13-25l-27-19-13-9-7-10zm-437 68c-4 3-8 1-11-1l-30-26-8-8c-3-3-5-7-4-13l26-16c3-2 4-2 10 0l5 33c2 11 8 20 12 31zm381 535c-9 7-20 13-31 18l-1 1c-4-1-5-3-5-6 0-21-7-40-16-58v-2l4-2c3 0 5 1 7 3l36 32a16 16 0 0 1 6 14zM472 522l31 23 48 34c4 3 9 6 10 12-3 4-6 3-9 0l-14-11c-8-6-17-11-27-14h-1a43 43 0 0 0-21-1v-1l-15 2c-6-15-7-29-5-44zM209 742h-14c-9 0-13 3-15 11-3 7-1 13 2 19 2 6 6 11 12 15l26 18c8 4 14 10 18 18-3 3-6 2-9 0l-9-5-42-37-3-2c-10-8-24-8-32 5l-2 11-4-4-1-8c0-9 6-18 15-20 4-2 10-3 15-3h1l3-10c7-18 25-22 39-8zm87-449c-5 11-6 12-12 17l-36-52c4-13 13-22 22-26 5 10 7 21 12 31l14 30zm51-110c0-12 1-23 8-35 14 0 28 2 38 12v37zm381 547c2-7 5-12 11-16l37 51c-4 12-11 20-21 27l-5-8-7-20-15-34zm-62 146c-20-2-30-6-35-13v-37l5 2c12 3 23 9 36 10l4 2c2 14-2 29-10 36zm-53 118-24-18c-6-4-6-13 1-17l4-2 24-11c8-4 13-2 16 7 5 16-4 35-21 41zM466 864l6-5c24 2 46 9 68 20l-4 5c-11 6-23 11-37 7l-21-4c-12-3-16-10-12-23zm92-704-6 5c-25-1-47-9-69-20l5-5a47 47 0 0 1 30-8c11 1 20 3 29 6l-1-1c11 3 15 10 12 23zM411 30l21 15c6 4 8 8 6 16l-8 5h-1l-23 11c-9 4-13 2-16-7-5-14 3-34 17-40h4zM200 410l-3-9 5-32 8 1 27 15c5 3 5 4 8 12l-3 17c-5 3-9 2-12 1-10-3-19-6-30-5zm582 197c16 0 28 9 43 6 3 16-1 29-5 42h-3l-32-18a11 11 0 0 1-6-12l3-18zM416 925l-9 23a9 9 0 0 1-11 5l-33-10c-5-2-6-6-3-11 3-7 7-12 13-15a17 17 0 0 1 11-2l30 8 2 2zm89-250-1 2c-10 5-22 9-34 10h-1l-7-1h1l-43-22-2-2 12-4c13-3 25-3 37 2l30 9c3 1 7 2 8 6zM607 97c5-8 6-18 13-26 16 0 30 6 44 11l1 3c0 15-17 27-31 23l-19-6c-4-1-4-1-8-5zm-2 264c-4 4-10 4-16 5a55 55 0 0 1-30-1h1l-32-11-10-4 4-5a407 407 0 0 1 32-9l7 2h-1a1377 1377 0 0 1 45 23zm2-292c1 12-3 21-13 28l-34-7c-7-9 0-19-1-29 4-3 8-3 12-2l27 5 9 5zm-3 840c21 9 24 10 28 17l-5 5-13 10c-12 10-38 6-47-9l-1-4zm-176 18c13 0 25 5 37 6 3 11 2 21-1 30-7 3-14 1-21-1-6 0-11-2-17-3-8-2-10-5-9-12s3-12 11-20zm-38-827c10-10 19-20 30-22l9-1c11 0 20 5 27 13l1 3h1v2c-11 7-26 9-36 20zm-66 867c-3-10 0-20-4-29-4 0-5 2-4 5 2 7 0 14-1 21l-1 3c-8-1-19-8-25-15l10-11c3-4 4-9 6-14l8 2-1-1 9 5 21 12c10 6 12 12 7 23-9 3-17 4-25-1zM677 55c11-2 14-1 23 1l2 15 1 10c0 2 2 4 3 5h2a123 123 0 0 1-1-15v1l2-16v1c9 0 18 5 26 14-4 4-8 7-10 11l-6 14a32 32 0 0 1-8-1l-9-5h1l-22-12c-9-5-11-14-4-23zm-263 69-18 28c-11-9-25-8-37-11 1-13 12-27 22-30l7-1c11 0 20 6 26 14zm196 775 18-28c10 10 25 7 37 12-1 12-12 26-21 29-12 3-27-2-34-13zM391 30c-3 10-7 18-8 26v26l-1 1c-9 2-18 3-26-2-7-4-9-10-6-18s9-15 17-20c6-5 13-8 20-12l4-1zm243 963v-7c8-13 9-27 6-42v-2c11-7 26-4 34 8 2 8-1 14-6 20-9 11-21 18-34 23zm-86-61 20 15 3 4h1c-1 5-4 7-7 8-8 3-16 5-25 5h-1l-1 1c-5 0-9-2-12-6-6-6-11-13-10-23l16-3 16-1zM507 87l-7 2-24 3-21-16-3-6c2-3 6-6 11-7a230 230 0 0 1 22-5c6 0 12 4 15 8 4 6 8 12 7 21zM238 458c-11 3-20-5-31-2-7-12-5-25-9-36a14 14 0 0 1 12-1l28 9c3 6 3 22 0 30zm582 113c1 11 5 22 4 33-5 3-10 0-15-1l-23-7c-5-9-2-20-1-30 6-2 25 1 35 5zm-64-46c12 32 13 64 3 98-6-8-9-15-8-23 4-17-1-33-6-49l-2-9v-1c-2-8 3-14 13-16zm-488-27c-13-32-13-64-3-97 6 8 9 16 7 24-3 16 0 30 5 44l4 13v1c1 8-4 14-13 15zM540 3a84 84 0 0 1 43 4h-1c7 2 11 8 14 15l1 8-32 2c-10 0-17-7-21-16l-4-13zm-57 1018c-15 1-29 1-42-5-6-3-11-8-14-15l-1-8 12-1 12-1c11-2 20 1 29 14a25 25 0 0 1 4 16zm25-958c3-4 7-7 12-7 14-1 22 0 28 4 4 9 4 19 0 29h-31c-1-9-9-16-9-26zM187 677c-1 3-2 5-7 4-22-26-41-56-50-90a36 36 0 0 1 26 0h-1l-1 12c-4 16 0 31 9 44l20 25 4 5zm650-330 3-6 4 1 12 15c16 22 29 45 37 71l1 6a87 87 0 0 1-24 0c-3-4-1-8 0-11a54 54 0 0 0 0-28v1c-2-8-5-14-10-20zM476 935h31c0 10 10 16 8 27-11 9-24 3-36 5-8-10-7-20-3-32zm338-376c-8 2-16 0-24-2-2 0-4-3-5-5-4-7-6-24-3-34 5-4 10-3 15-3 9 8 19 32 17 44zm-577-92c7 14 9 29 4 40l-16 1a95 95 0 0 1-17-43c10-1 20-1 29 2zM482 18l-10 3-11 2c-6 2-11 7-14 12l-6 8c-10-5-17-13-25-21l1-1c15-8 32-13 50-13 6-1 9 4 15 10zm99 964c8 1 20 10 26 20-4 3-8 6-13 7h-1l-23 6c-9 2-18 1-25-6l-1-2a9 9 0 0 1 0-2l7-2c13-1 23-8 29-20l1-1zm-16-108c2-4 6-6 11-7a2603 2603 0 0 1 41-3c-2 9-6 18-11 24-6 6-15 7-23 3s-15-6-18-15v-2zM406 159c4-13 8-24 22-28 2-1 5-2 7-1 9 4 19 7 24 19-2 3-6 6-10 7-13 2-28 3-43 3zm-47 794c16 5 31 8 45 16-2 11-7 15-17 16s-19-2-28-8a8 8 0 0 1-3-8h-1l4-16zM668 53l-3 15c-9 1-34-7-44-13-1-8 4-15 12-16 9-1 19 0 28 4 4 2 7 5 7 10zm-367 64c2-15 23-42 35-47l4 12c2 4 6 5 9 8l-5 4-30 21c-4 3-8 5-13 2zm386 837c-2-10-2-10-13-21l6-4 31-21a12 12 0 0 1 12-3h-1l1 4c-8 17-18 32-33 44l-3 1z"/>
  <path fill="#FAFAFA" d="M492 48c-8 4-35 10-42 9-6-19 9-33 33-30zm48 948-8-21c6-4 14-4 21-6s14-5 22-3c3 21-12 33-35 30zm59-177 18-5c6 13 6 25 3 37-9 6-10 6-21 3-6-11-8-23 0-35zM424 169a37 37 0 0 1 5 25v-1c-1 7-3 13-11 13l-11 2c-7-12-6-24-4-36 6-5 13-4 21-3zm322 277c15 7 43 43 48 59-10 7-18 6-22-5-7-18-15-33-23-48v2l-3-8zM276 579c-20-17-35-37-47-61l6-3c8-2 12-1 16 7l9 20 16 31 2 4zm131 258 53 21-4 14c-17 2-43-16-49-35zm165 23c-9-5-8-13-7-19 0-8 4-15 13-17l13-3h-1c-1 7-2 13-1 19l3 17c-6 3-14 2-20 3zm45-674-54-20 4-13c17-4 42 12 50 33zm-165-23c9 6 8 14 7 22-1 7-5 13-13 14l-12 3h1c-3-6 1-12 0-18l-4-18c7-3 14-1 21-3zm-81 834c2-5 6-6 10-6h4c7 0 13-1 18-5h-1l11-1c6 8 11 15 7 26l-9-1h1c-14-3-36-10-41-13zM652 26v1a4 4 0 0 1-4 4c-12-1-22 3-33 8h-1c-9-6-12-12-11-25 2-2 6-2 9-1l39 12 1 1zm233 422 13-2c7 22 8 46 12 68-5 1-10 2-15-1-2-6 0-11 2-15 4-9 2-18-2-27l-10-23zM138 575l-13 2c-6-22-8-45-11-67h14l1 6-2 10v-1c-4 9-3 18 1 27l7 15 3 8z"/>
  <path fill="#FAFAFA" d="M379 851c5-9 9-12 19-11l20 21 22 15c-21-7-42-13-61-25zm3-455-9 5-20-18c-7-5-16-9-25-13l11-15zM678 89l11 6-5 12c1 7 6 13 0 20-10 1-16-7-25-11zM365 908l-18 25c-5 0-9-2-12-6 4-7 7-15 1-22l3-9c11 0 17 7 26 12zm288-284c10 15 25 23 43 29l-11 15-42-40c2-4 6-5 10-4zm-27-440c-7-8-12-15-19-21s-14-9-21-14c20 6 40 12 59 23-4 10-11 12-19 12zm-142 7c-7 0-13 3-20 2l2-28c8-3 13-3 20 0 3 10 2 17-2 26zm74 668h-21c-2-9-2-18 2-27l21-3-2 16v14zm53-805a31 31 0 0 1-7 1l-41-8-2-2 1-2a56 56 0 0 1 35-6c8 2 14 8 14 17zM412 969c11-2 18 3 26 4l25 4-2 4-23 6h-2c-9 1-16-3-21-10-2-2-2-5-3-8zm-38-333c11-1 31 3 52 12-1 1-2 3-4 3l-8 4h-10l-28-16-2-3zm275-249c-18 2-34-6-51-12 9-6 17-11 28-4 8 5 16 8 23 16zM512 189h-17v-24h16c7 9 7 12 1 24zm159 15-11-13-9-9-2-7c19 13 34 25 48 40-7 2-9 1-26-11zM529 859c-6 1-12 1-18-2-5-7-4-14 0-21l17-2c2 4 0 9 0 13l1 12zm-154-15c-11 0-41-25-47-37 6-3 9 2 12 4l13 6h-1l11 15 12 12zm103 3 3-11h23l-4 18c-8 1-15 1-22-7zm67-673c1 5 0 9-3 13h-22l4-18c7-2 14 1 21 5zm-75-30-11-7-11-8c16 1 30 0 44 2zM211 883a6 6 0 0 1-1-4c0-6 4-10 10-10s11 4 11 10-3 9-9 11h-2c-3 0-5-2-7-4l-2-3zm601-744a12 12 0 0 1 0 10v-1c-2 5-5 6-9 6-6-1-10-4-10-10s3-11 9-10c4 0 5 1 9 3l1 2zM574 893h-42l-1-1 12-6c3-2 6-6 12-6zm-178-63a28 28 0 0 1-21 8c-5-5-9-10-11-17 11 2 21 4 32 9zm53 13 1-7h23c0 5 0 10-3 14-7 0-14-3-21-7zm125-656h-24l3-14 11 2 11 4-1 8zm76-1 10 14c-11 0-22-3-32-7a27 27 0 0 1 22-7zm11-157c6 1 24 11 32 17-16 7-23 0-32-17zM331 976h20l14 18h-6c-5-1-24-13-28-18zM202 500l-4-3-4-4c-1-9-1-9 2-15 5 6 6 12 6 22zm625 46c-4-8-5-15-6-22 11 5 12 10 6 22zm-304 476 9-8c5-1 9 1 13 5a51 51 0 0 1-22 3zm33-154c-6 7-13 7-28-1l28 1zM500 2c-11 10-13 10-21 2 7-3 13-2 21-2zm-81 831h4l18 3-1 5c-9 0-12-1-21-8zm185-642-21-4 1-5c8 1 15 2 20 7zm-111-36h-26a10 10 0 0 1 11-5c5 1 11 1 15 6zm-33 727-10-3c6-2 6-2 10 3zm115-737c-5 1-9 1-12-4l12 4zm-82 11h1l-1-1z"/>
</svg>
