<svg version="1.1" id="Layer_1" xmlns="http://www.w3.org/2000/svg" xmlns:xlink="http://www.w3.org/1999/xlink" x="0px" y="0px" width="100%" viewBox="0 0 200 200" enable-background="new 0 0 200 200" xml:space="preserve">
<path fill="#FFFFFF" opacity="1.000000" stroke="none" d=" M157.723755,121.227112   C165.352051,134.079361 172.709244,146.666214 180.327316,159.699371   C127.640121,159.699371 75.464500,159.699371 22.654545,159.699371   C48.936272,114.748428 75.046753,70.090370 101.586555,24.698030   C116.902084,51.112461 131.466583,76.237526 146.037964,101.358604   C149.831879,107.899345 153.647171,114.427673 157.723755,121.227112  M139.035645,99.398903   C126.598015,77.993469 114.160385,56.588036 101.555557,34.894852   C77.853371,75.442223 54.449306,115.479591 30.762621,156.000443   C35.454662,156.000443 39.417671,155.823730 43.356430,156.056793   C46.467094,156.240829 47.981361,154.856415 49.416634,152.239166   C54.202961,143.511215 59.241653,134.919830 64.273010,126.328445   C75.722351,106.777924 87.208214,87.248680 98.749245,67.752228   C99.402832,66.648102 100.573471,65.500656 101.724396,65.188850   C102.293388,65.034691 103.584816,66.613297 104.176170,67.625870   C108.225479,74.559456 112.120171,81.583344 116.168556,88.517479   C127.752686,108.358948 139.588516,128.057449 150.875931,148.065720   C154.219910,153.993301 157.874756,157.477463 165.000839,156.063873   C167.081451,155.651154 169.313232,156.000427 172.253525,156.000427   C161.184174,137.074860 150.341293,118.536499 139.035645,99.398903  M83.964844,131.401657   C88.931244,122.769028 93.869682,114.120026 98.901901,105.525940   C99.484924,104.530251 100.568962,103.214478 101.456306,103.186768   C102.306297,103.160210 103.468277,104.463699 104.038925,105.446396   C113.076752,121.010284 121.994064,136.644409 131.094727,152.171158   C132.019119,153.748276 133.849670,155.661835 135.425781,155.826111   C140.089569,156.312241 144.836578,155.999969 149.944031,155.999969   C133.585754,128.035309 117.554855,100.630295 101.490761,73.168541   C85.404457,100.746620 69.371117,128.233902 53.174870,156.000473   C57.579231,156.000473 61.448936,155.661575 65.228951,156.098557   C68.800446,156.511444 70.490906,154.799698 72.012611,152.083588   C75.781998,145.355591 79.663750,138.690552 83.964844,131.401657  z"/>
</svg>