<svg version="1.1" id="Layer_1" xmlns="http://www.w3.org/2000/svg" xmlns:xlink="http://www.w3.org/1999/xlink" x="0px" y="0px" width="100%" viewBox="0 0 200 200" enable-background="new 0 0 200 200" xml:space="preserve">
<path fill="#FFFFFF" opacity="1.000000" stroke="none" d=" M23.000694,97.048538   C20.655516,76.917740 25.387953,59.149811 37.141827,43.186420   C37.743843,42.368793 37.396580,40.525555 36.977798,39.341434   C35.442921,35.001469 33.690853,30.738312 31.846832,25.999819   C38.026760,25.999819 43.826595,26.220442 49.595680,25.895330   C52.032017,25.758034 54.712528,24.950279 56.756008,23.631910   C74.044296,12.478243 92.745102,8.937575 113.046272,11.867812   C124.805038,13.565056 135.315140,17.740095 145.039444,24.400951   C146.642151,25.498760 148.987305,25.863722 151.010376,25.930515   C156.933838,26.126083 162.867920,26.000105 169.290482,26.000105   C168.523438,27.717100 168.038986,28.870264 167.499771,29.997221   C164.295822,36.693520 162.453964,42.546135 167.960892,49.897667   C174.756424,58.969437 177.131699,70.143593 178.153442,81.695801   C180.563705,108.947266 170.888153,131.048889 150.665482,148.640732   C140.740494,157.274536 128.995834,162.837540 115.800552,165.186188   C113.641411,165.570480 111.209763,168.039825 110.127365,170.167755   C107.090744,176.137589 104.705666,182.437943 102.030144,188.593399   C101.666374,189.430298 101.111610,190.184189 100.212143,191.712463   C97.444679,185.373062 94.396568,179.837387 92.620842,173.919891   C90.812683,167.894302 87.225777,165.434265 81.358086,163.915833   C50.310017,155.881317 31.442459,135.754944 24.028439,104.711868   C23.467518,102.363251 23.333298,99.912735 23.000694,97.048538  M50.029701,50.652573   C49.025513,53.788841 43.852657,55.338268 46.973766,60.642239   C59.325191,40.593597 76.647751,29.093027 100.388412,29.030319   C124.248085,28.967299 141.632370,40.581875 154.927200,59.955883   C154.610901,57.073425 153.613373,54.883118 152.332336,52.873535   C150.963989,50.726986 149.328079,48.751015 148.044724,47.018814   C150.345352,47.018814 152.938538,46.290615 154.771240,47.161961   C159.377975,49.352184 159.967270,46.409195 161.117432,43.110409   C145.344376,43.526512 135.109253,32.204895 122.109512,27.034979   C122.246994,26.613359 122.384476,26.191740 122.521957,25.770121   C126.854248,25.770121 131.186539,25.770121 136.074478,25.770121   C111.503571,11.415770 81.692062,14.744707 65.039330,26.280111   C69.893211,26.280111 74.237488,26.280111 78.581757,26.280111   C65.776932,32.440754 55.406166,43.636921 39.697048,43.175293   C42.860210,51.775505 48.810204,44.811913 53.046894,47.107094   C52.332554,47.913891 51.392986,48.975063 50.029701,50.652573  M133.039719,115.561371   C129.232773,124.827118 125.425835,134.092880 121.371788,143.960052   C156.144592,130.430634 168.583984,89.632614 154.070435,65.145584   C152.439224,68.953781 150.822449,72.589012 149.316376,76.269531   C144.042816,89.156822 138.807388,102.059723 133.039719,115.561371  M40.999496,90.400146   C41.490974,112.849136 57.428276,136.078003 79.535805,143.610199   C68.541061,117.099709 57.730251,91.032722 46.720303,64.485573   C42.565880,72.776520 40.759739,80.882721 40.999496,90.400146  M30.998037,67.592796   C25.414373,85.867088 27.244003,103.474403 35.844704,121.828285   C35.844704,99.160583 35.844704,77.840958 35.844704,55.102432   C33.894905,59.824963 32.462605,63.294067 30.998037,67.592796  M172.999023,79.880524   C170.792892,71.990562 168.586761,64.100601 166.380630,56.210644   C165.920502,56.313530 165.460373,56.416416 165.000244,56.519302   C165.000244,67.240623 165.000244,77.961952 165.000244,88.683273   C165.000244,99.280403 165.000244,109.877533 165.000244,120.474663   C169.830978,111.073341 173.908401,103.023361 172.999023,79.880524  M46.613075,134.109604   C45.868336,134.109604 45.123596,134.109604 43.987869,134.109604   C55.448616,147.825653 69.464928,156.347824 87.071259,159.339752   C85.020142,155.981491 83.032814,152.235092 79.925591,150.191238   C74.637871,146.713150 68.702309,144.185059 62.932713,141.484787   C57.744389,139.056564 52.413361,136.933258 46.613075,134.109604  M125.930336,148.587769   C119.377373,149.513077 115.418900,153.080505 114.588638,159.768524   C131.682083,156.419708 145.507629,147.578156 156.387436,133.717697   C149.976410,135.913925 143.846680,138.701645 137.831055,141.716980   C133.969604,143.652527 130.276215,145.923309 125.930336,148.587769  M110.003479,151.978302   C112.321419,150.007996 117.297623,152.443726 117.803658,148.003754   C106.161758,148.003754 94.614792,148.003754 83.067825,148.003754   C84.256424,149.450134 85.808083,150.778198 87.452362,150.904984   C94.648209,151.459686 101.870911,151.666229 110.003479,151.978302  M40.999710,120.779060   C40.999710,123.062279 40.999710,125.345490 40.999710,127.788704   C43.667564,128.304779 46.088947,128.773178 49.267502,129.388031   C46.344055,124.534515 43.880802,120.445007 40.999710,115.661804   C40.999710,117.649971 40.999710,118.778572 40.999710,120.779060  M158.567612,117.944489   C156.456741,121.514153 154.345856,125.083817 151.706757,129.546768   C155.178925,128.770996 157.585617,128.233276 159.793045,127.740074   C159.793045,123.665192 159.793045,120.089233 159.793045,116.513283   C159.550400,116.600266 159.282272,116.649994 159.076508,116.790840   C158.981674,116.855751 159.008911,117.098969 158.567612,117.944489  z"/>
<path fill="#000000" opacity="1.000000" stroke="none" d=" M50.241562,50.344406   C51.392986,48.975063 52.332554,47.913891 53.046894,47.107094   C48.810204,44.811913 42.860210,51.775505 39.697048,43.175293   C55.406166,43.636921 65.776932,32.440754 78.581757,26.280111   C74.237488,26.280111 69.893211,26.280111 65.039330,26.280111   C81.692062,14.744707 111.503571,11.415770 136.074478,25.770121   C131.186539,25.770121 126.854248,25.770121 122.521957,25.770121   C122.384476,26.191740 122.246994,26.613359 122.109512,27.034979   C135.109253,32.204895 145.344376,43.526512 161.117432,43.110409   C159.967270,46.409195 159.377975,49.352184 154.771240,47.161961   C152.938538,46.290615 150.345352,47.018814 148.044724,47.018814   C149.328079,48.751015 150.963989,50.726986 152.332336,52.873535   C153.613373,54.883118 154.610901,57.073425 154.927200,59.955883   C141.632370,40.581875 124.248085,28.967299 100.388412,29.030319   C76.647751,29.093027 59.325191,40.593597 46.973766,60.642239   C43.852657,55.338268 49.025513,53.788841 50.241562,50.344406  z"/>
<path fill="#000000" opacity="1.000000" stroke="none" d=" M133.298615,115.259033   C138.807388,102.059723 144.042816,89.156822 149.316376,76.269531   C150.822449,72.589012 152.439224,68.953781 154.070435,65.145584   C168.583984,89.632614 156.144592,130.430634 121.371788,143.960052   C125.425835,134.092880 129.232773,124.827118 133.298615,115.259033  z"/>
<path fill="#000000" opacity="1.000000" stroke="none" d=" M40.999550,89.925323   C40.759739,80.882721 42.565880,72.776520 46.720303,64.485573   C57.730251,91.032722 68.541061,117.099709 79.535805,143.610199   C57.428276,136.078003 41.490974,112.849136 40.999550,89.925323  z"/>
<path fill="#000000" opacity="1.000000" stroke="none" d=" M31.014172,67.177986   C32.462605,63.294067 33.894905,59.824963 35.844704,55.102432   C35.844704,77.840958 35.844704,99.160583 35.844704,121.828285   C27.244003,103.474403 25.414373,85.867088 31.014172,67.177986  z"/>
<path fill="#000000" opacity="1.000000" stroke="none" d=" M172.999817,80.348076   C173.908401,103.023361 169.830978,111.073341 165.000244,120.474663   C165.000244,109.877533 165.000244,99.280403 165.000244,88.683273   C165.000244,77.961952 165.000244,67.240623 165.000244,56.519302   C165.460373,56.416416 165.920502,56.313530 166.380630,56.210644   C168.586761,64.100601 170.792892,71.990562 172.999817,80.348076  z"/>
<path fill="#000000" opacity="1.000000" stroke="none" d=" M46.879181,134.392517   C52.413361,136.933258 57.744389,139.056564 62.932713,141.484787   C68.702309,144.185059 74.637871,146.713150 79.925591,150.191238   C83.032814,152.235092 85.020142,155.981491 87.071259,159.339752   C69.464928,156.347824 55.448616,147.825653 43.987869,134.109604   C45.123596,134.109604 45.868336,134.109604 46.879181,134.392517  z"/>
<path fill="#000000" opacity="1.000000" stroke="none" d=" M126.218918,148.315796   C130.276215,145.923309 133.969604,143.652527 137.831055,141.716980   C143.846680,138.701645 149.976410,135.913925 156.387436,133.717697   C145.507629,147.578156 131.682083,156.419708 114.588638,159.768524   C115.418900,153.080505 119.377373,149.513077 126.218918,148.315796  z"/>
<path fill="#000000" opacity="1.000000" stroke="none" d=" M109.543671,151.988708   C101.870911,151.666229 94.648209,151.459686 87.452362,150.904984   C85.808083,150.778198 84.256424,149.450134 83.067825,148.003754   C94.614792,148.003754 106.161758,148.003754 117.803658,148.003754   C117.297623,152.443726 112.321419,150.007996 109.543671,151.988708  z"/>
<path fill="#000000" opacity="1.000000" stroke="none" d=" M40.999710,120.343124   C40.999710,118.778572 40.999710,117.649971 40.999710,115.661804   C43.880802,120.445007 46.344055,124.534515 49.267502,129.388031   C46.088947,128.773178 43.667564,128.304779 40.999710,127.788704   C40.999710,125.345490 40.999710,123.062279 40.999710,120.343124  z"/>
<path fill="#000000" opacity="1.000000" stroke="none" d=" M158.774200,117.602921   C159.008911,117.098969 158.981674,116.855751 159.076508,116.790840   C159.282272,116.649994 159.550400,116.600266 159.793045,116.513283   C159.793045,120.089233 159.793045,123.665192 159.793045,127.740074   C157.585617,128.233276 155.178925,128.770996 151.706757,129.546768   C154.345856,125.083817 156.456741,121.514153 158.774200,117.602921  z"/>
</svg>