<svg xmlns="http://www.w3.org/2000/svg" xmlns:xlink="http://www.w3.org/1999/xlink" viewBox="0 0 640 480">
  <defs>
    <radialGradient xlink:href="#a" id="b" cx="842.3" cy="103.7" r="25.9" gradientTransform="matrix(.14152 .03595 -.03453 .14198 213 162)" gradientUnits="userSpaceOnUse"/>
    <radialGradient xlink:href="#a" id="c" cx="651.5" cy="550.5" r="25.9" gradientTransform="matrix(-.13441 -.05384 .04964 -.12489 398 -24)" gradientUnits="userSpaceOnUse"/>
    <radialGradient xlink:href="#a" id="d" cx="380.8" cy="740.4" r="25.9" gradientTransform="matrix(.07536 .00282 -.00343 .14804 412 -204)" gradientUnits="userSpaceOnUse"/>
    <linearGradient id="a">
      <stop offset="0" stop-color="#fff"/>
      <stop offset="1" stop-color="#f15770"/>
    </linearGradient>
  </defs>
  <path fill="#ce1126" d="M427 0h213v480H427z"/>
  <path fill="#fff" d="M213 0h214v480H213z"/>
  <path fill="#006847" d="M0 0h213v480H0z"/>
  <path fill="#fcca3e" stroke="#aa8c30" stroke-width=".3" d="M356 289v5l2-1-2-4z"/>
  <circle cx="355.6" cy="288.2" r="1.4" fill="#fcca3e" stroke="#aa8c30" stroke-width=".2"/>
  <path fill="#fcca3e" stroke="#aa8c30" stroke-width=".3" d="m361 296-3-3-2 1 5 3z"/>
  <path fill="#fcca3e" stroke="#aa8c30" stroke-width=".2" d="M361 298v-2h2v2h-2z"/>
  <path fill="#fcca3e" stroke="#aa8c30" stroke-width=".3" d="m386 250 4 3v-2l-3-2z"/>
  <circle cx="385.9" cy="248.7" r="1.4" fill="#fcca3e" stroke="#aa8c30" stroke-width=".2"/>
  <path fill="#fcca3e" stroke="#aa8c30" stroke-width=".3" d="m395 252-5 1 1-2h4z"/>
  <circle cx="396" cy="250.8" r="1.4" fill="#fcca3e" stroke="#aa8c30" stroke-width=".2"/>
  <path fill="#fcca3e" stroke="#aa8c30" stroke-width=".3" d="m378 277-3-5 4 4z"/>
  <circle cx="374.5" cy="270.8" r="1.4" fill="#fcca3e" stroke="#aa8c30" stroke-width=".2"/>
  <path fill="#fcca3e" stroke="#aa8c30" stroke-width=".3" d="m378 277 4 1v-1l-3-1z"/>
  <circle cx="383.3" cy="277.7" r="1.4" fill="#fcca3e" stroke="#aa8c30" stroke-width=".2"/>
  <path fill="#fcca3e" stroke="#aa8c30" stroke-width=".2" d="m285 288-1 1-1-1 1-1 1 1z"/>
  <path fill="#fcca3e" stroke="#aa8c30" stroke-width=".3" d="m285 290 1 5h-2v-4z"/>
  <path fill="#fcca3e" stroke="#aa8c30" stroke-width=".2" d="m286 289-2 2-2-1 2-1h2z"/>
  <ellipse cx="277" cy="296.3" fill="#fcca3e" stroke="#aa8c30" stroke-width=".2" rx="1.6" ry="1.1"/>
  <path fill="#fcca3e" stroke="#aa8c30" stroke-width=".3" d="M280 296h4v-1h-4z"/>
  <path fill="#fcca3e" stroke="#aa8c30" stroke-width=".2" d="M280 295c1 2 1 3-1 3l-1-2v-2c1-1 2 0 2 1z"/>
  <ellipse cx="264.4" cy="269.2" fill="#fcca3e" stroke="#aa8c30" stroke-width=".2" rx=".9" ry="1.4"/>
  <path fill="#fcca3e" stroke="#aa8c30" stroke-width=".3" d="M264 272v5l-1-1v-4z"/>
  <path fill="#fcca3e" stroke="#aa8c30" stroke-width=".2" d="M266 271c0 1-1 2-2 1l-2-1 2-1c1 0 2-1 2 1z"/>
  <ellipse cx="256.2" cy="276.5" fill="#fcca3e" stroke="#aa8c30" stroke-width=".2" rx="1.6" ry=".7"/>
  <path fill="#fcca3e" stroke="#aa8c30" stroke-width=".3" d="m259 277 4-1 1 1h-5z"/>
  <path fill="#fcca3e" stroke="#aa8c30" stroke-width=".2" d="m258 275 1 2-2 2v-4h1zm-3-29-2 1v-2l2-1v2z"/>
  <path fill="#fcca3e" stroke="#aa8c30" stroke-width=".3" d="m251 254 2-5-1-1-2 4z"/>
  <path fill="#fcca3e" stroke="#aa8c30" stroke-width=".2" d="m252 249-1-3h2v1h2v2h-3zm-8-1 1 2h-2l-1-2h2z"/>
  <path fill="#fcca3e" stroke="#aa8c30" stroke-width=".3" d="m246 250 4 2v2l-4-3z"/>
  <path fill="#fcca3e" stroke="#aa8c30" stroke-width=".2" d="M246 251h-2v-2l1-1h1v3z"/>
  <path fill="#aa8c30" d="M357 290h-1v1-2l1 1zm0-1h-3l1-2-1 1v1h1v1h1v-1h1zm4 7h-1l-3-1 4 2v-1zm2 1v1h-2v-1 1l1 1h1v-2zm25-47v1l-1-1v-1l1 1zm-1-1-1 1c-1 0-2-1-1-2h-1l1 1v1h2v-1zm10 1-1 2-1-1c0-1 0 0 0 0v1h2v-2zm-3 1-1 1h-1 3v-1h-1zm-17 23v1l-2-3 2 2zm-1-3-2 1v-2h-1v2h3v-1zm5 6h-2l3 1v-1h-1zm4 1-2 1-1-2v1l1 1h1l1-1zm-99 11-2 2-2-1v-1 1l1 1h1l1-1h1v-1zm-1 2-1 1v-1h1zm-4 4v1h1-2v-1h1zm-1 1v1l-1 1a1 1 0 0 1-1-1v-1 2h2v-2zm-5 0 2 1h1-3v-1zm-9-25-2 1-1-1h-1l1 1h3v-1zm-2 2a4 4 0 0 0-1 1v-2h1v1zm-4 4h3-4 1zm-1 0-2 2v-2 2h1v-1h1v-1zm-2 0h-2 2zm-2-29-2 1-2-2 1 1 1 1h2v-1zm-3 1v2l1-2h-1zm-5 2 2 3-3-3v-1l1 1zm-1 0h-2v-1l-1 1h2zm-2-1-2-1h1l1 1z"/>
  <path fill="#9ca168" d="M400 240c0 4-4 6-6 7l-3 4-1 2v8l3-2 2-1-3 5c-1 2-2 7-5 9l-6 1-1 1-1 2-1 1-1 1h-1a8 8 0 0 1 0 2l-1 3 2-1h1l-1 1c0 1 0 5-3 7-4 3-14 2-14 2l-1 1-2 1-2 2-2 2-3 2h3l3 2h-4c-1 1-8 5-11 5s-8-5-8-5l-2-2h-8v-2h4l5 1h3l6-5 6-1h4l-1 1a7 7 0 0 1-1 1v1l4-1 1 1 1-1 3-3 2-1 1-4v-1l5-4 2-3 2-3-1-1 1 3v3l4-3h2l2-2 1-2 1-3-1-7 3-5 3-3 1-1-1 1v2l3-3h1a7 7 0 0 0 0-2l1-3v-3l-1-3-1-4v-6l-2-1 3 2a14 14 0 0 1 2 5l3-11 2 4v3l2-3v1c0 1 2 2 2 6zm-67 65-4-3-6-2v1l5 3 3 2 2-1z"/>
  <path fill="#717732" d="m355 296 5-4 3-1 7-2 6-6 2-1-3 4a29 29 0 0 1-6 5 18 18 0 0 1-8 1 8 8 0 0 0-4 2l-2 3v-1zm12-13-5 7 5-5 6-3 2-3 1-1s-1-2-9 5zm-8 9 2-3 1-3 6-5c3-3 1-6 1-6v3l-8 7v3l-2 3zm-3 10-4-1c-5 0-9 3-13 3-3 0-4-1-7-3-2-2-9-2-9-2v1h7c3 1 5 5 9 5 6 0 10-4 12-4l5 1zm-24-2s4 0 7-2 6-5 8-5h4l-4-1-6 2-5 4a13 13 0 0 1-4 2zm-1 5h-1l-3-2-4-1 4 1a9 9 0 0 1 3 2l1 1 2-1h-2zm3-4 4 1c5 0 9-4 12-5 3-2 5 0 5 0v-1a7 7 0 0 0-4-1c-5 0-11 4-13 5l-4 1zm56-40c-2 2-4 8-6 9l-3 3-3 4-1 1s-1 0 0 0l2-1 2-3 5-4 5-9 4-3s-2 0-5 3zm-9 11 1-2 3-4 2-7 3-5-3 2a35 35 0 0 0-5 9l-1 7zm-2 2 1-3 1-9c0-2 5-7 5-7l-5 3c-3 2-3 4-3 6l1 7v4zm11-20 1-5 3-4c1-1 3-2 3-4l1-8-1 2-1 6-4 7v-6l2-6v-6l-2 3-1 7v10l-1 2a35 35 0 0 1 0 3v-1zm-4-21 2 3-1 7 3 3v4-6l-1-2-1-6c0-2-2-3-2-3z"/>
  <path fill="#9ca168" d="m307 305 3-3a34 34 0 0 1 7-3v2l-3 1-2 1-2 2h-3z"/>
  <path fill="#9ca168" d="m314 298-6 1h-2a5 5 0 0 1-1-1l-1-1v2l-5-4-1 3v1l-5-5v4h-1l-4-2h-1l1 2-4 1h-1a6 6 0 0 0-1 1v1h1l1-1c0 1 0 2 1 1l4-1c2 1-2 2-2 4h4c1 0 3-3 4-2s-3 2-2 4h4c1 0 3-4 4-3s-2 2-2 3h4l3-4h2l1-1 4-2h1l1 1h2v-1l-3-1zm-28 0 1-2-3-2a7 7 0 0 0-2-2l-2-1-1-3v-1l-2 1-1-6-1-1-2 3-1-2-1-5-1 1-1 1-2-4h-1v3a26 26 0 0 1-6-6l-1-2 1-2 1-3-2 1-1-5v-2l-3 4-1-2v-4h-1v2l-2-2v-5c-1-2-2-3-1-5v-3l3-4c-1-1-4 2-4 0 1-2 4-2 5-5 0-2-3 1-4 0l2-4v-2l-3 3-2-1v3l-1 3-3-2 1 3 1 3-3-1 1 3 2 2 1 2h1l1 1 1 2v7h-1c-1 1 1 2 1 2l-3 1c-1 1 0 2 1 2l5 2c0 1-5-2-4 0a4 4 0 0 0 2 4l5 1c0 1-3-1-3 1-1 1 2 1 2 1l3 1 4 4a76 76 0 0 0 5 3h-3c0 1 6 3 5 4-2 1-4-2-5 0 0 2 1 3 2 3 1 1 7 1 6 2s-5-1-5 1 2 4 4 3c1 0 3-2 4-1v2c1 1 2-1 4-1l5 3a79 79 0 0 1 3 3z"/>
  <path fill="#717732" d="m308 304 2 1 3-3a18 18 0 0 1 4-1l-4 2-3 2-2 1-1-1 1-1zm9-4h-1a4 4 0 0 0-3-1 7 7 0 0 0-4 1l-1 2 2-1a7 7 0 0 1 3-2l2 1h2zm-51-21v-1a16 16 0 0 1-2-1l-5-3 3 2 4 3zm36 25 2-2 1-2v-1l-1-2 2 2a10 10 0 0 1 1 1l1-1h-1l-3-3-1 2c-1 0-2-4-5-4h-2c0 1 3 3 2 4-1 0-4-4-6-4l-2 1 2 2-4-2-2 1v1l-2 1-2 2 2-1a50 50 0 0 1 6 0l-1-1-1-2 1 2 2 1h2l-1 2-1 1 2-1 1-2 1 1v-2l-2-3 2 3 1 2h2l-1 2-1 2 2-2 1-2h2l-1-1-1-3 2 3 1 1h2l-1 2a18 18 0 0 0-1 2zm-21-12 1 1s-2-1-2-3l-1-4-2 2v-6l-3-3c-1 1 0 4-2 4v-6l-2-2v3l-2-2h-1v-1l-1 1 1 2 1 1-1 1h-2 2l2 1 1 2 1-3v-2 6l-2 1-4-1a14 14 0 0 0 7 1l2 2 1-3v-3 7a5 5 0 0 1-2 1l-4 1h4l2-1 1 1 1 1h-1l-1 1 2-1a22 22 0 0 0 1 0h1v-1l-1-2 1 2v1l1 1zm-32-36 1-3a14 14 0 0 0-2-6l1-1-1 1-2-1a3 3 0 0 1 0-1l1 1v-2l-2-1-2-2 2 2h2l2-1 1-1-2 1h-1l-1-2-1-1-1-3 1 2 2 1 1-1 3-2-2 1-2 1v-1l1-2-1-1 1-2v2l4-3-1-2-2 2-1-1-2 2v3c-1 1-1-1-2-1-2 0-2 2-2 3 0 0 3 3 2 4-1 0-3-3-4-1s4 4 4 4l1 2 2 2a13 13 0 0 1 3 6l-1 2zm12 17-1-3 2-6-3 2 1-6c-1-2-1-3-2-2-2 0-2 4-3 3v-4l-1-1-2 2-2-2c-1 1 2 5 2 5l1-1 1-2v4h-3a9 9 0 0 1-2-1l2 1 3 1a45 45 0 0 0 2 2l1-2 1-3-1 4v3l-3-1h-3l3 1h3l1 2 1-1 1-2v2a27 27 0 0 1-1 2h-4a20 20 0 0 0 4 1s0 0 1 1a5 5 0 0 0 1 1z"/>
  <path fill="#fff" d="m314 311-1-1-1-1h-1l1-2 6-5 1-5h3v7h1l6 4v2h-2l-2 1-4-3-2-2-3 4-2 1z"/>
  <path fill="#016848" d="M319 297v1l-1 5-4 4-2 2-2 1-1 1s0-3 3-5l4-3v-6h3zm7 15 1-1 1-1h-2l-3-2a14 14 0 0 1-2-2l-2 2 2 2 3 1a9 9 0 0 1 2 1z"/>
  <path fill="#cd202a" d="M322 297h2l-1 6a8 8 0 0 1-1 3l-4 3-2 3-1-1-1-1a10 10 0 0 1 3-3c3-1 4-3 5-5v-5z"/>
  <path fill="#cd202a" d="M333 310h-4l-2-2-3-2c-2 0-2-2-2-2l1-2 2 3 5 2 2 3z"/>
  <path fill="#30c2dc" stroke="#0872a7" stroke-width=".5" d="M345 286s-4-1-3-2c0-2 8-4 8-4v-2l-3 1-9 1a1735 1735 0 0 0-34-2c-4 0-6-6-6-6l-2 1v3a65 65 0 0 1-14-6l-1 2s7 4 7 6l-2 1 1 2s12 0 12 4l-3 2 1 1v1l9 1c1 1 2 3 5 4h19c3-1 5-4 9-5l6-1z"/>
  <circle cx="284.5" cy="280.7" r="2.1" fill="#fff" stroke="#0872a7"/>
  <circle cx="296.4" cy="270.9" r="2.1" fill="#fff" stroke="#0872a7"/>
  <circle cx="346.5" cy="286.6" r="2.1" fill="#fff" stroke="#0872a7"/>
  <path fill="#f8c83c" d="M275 268c-1 1 2 4 4 5l3-1a3 3 0 0 0 0-3c-1-2-6-3-7-1z"/>
  <path fill="#fff" d="m281 270-3-2c-1 0-2 0-1 1l2 1v1h1l1-1z"/>
  <path fill="#f8c83c" d="M298 288c0 2-1 2-2 3-2 1-5 0-5-1-1-1 1-3 2-3 2-1 4 0 5 1z"/>
  <path fill="#fff" d="m295 289 1 1 1-1-2-2-3 3h1l2-1z"/>
  <path fill="#f8c83c" d="M349 281c1 2 4 0 4 0 1-1 3-2 2-3l-3-1-3 2v2z"/>
  <path fill="#fff" d="m350 280 1-2 2 1 1-1-1 1h-2l-1 1z"/>
  <path fill="#f9aa51" stroke="#953220" stroke-linecap="round" stroke-linejoin="round" stroke-width=".5" d="M322 276h-7l3 10 4 6h5l1-2-2-9-4-5z"/>
  <path fill="#f9aa51" stroke="#953220" stroke-linecap="round" stroke-linejoin="round" stroke-width=".5" d="M311 277v-1h2a7 7 0 0 1 2 0s2 3 3 5l3 6 3 5h-6l-6-9-1-6z"/>
  <path fill="#f9aa51" stroke="#953220" stroke-linecap="round" stroke-linejoin="round" stroke-width=".5" d="M308 276h3a14 14 0 0 1 4 5l1 6 4 5h-6l-4-1a9 9 0 0 0-2-1h-2l1-3-1-7v-4h2zm24 2-4-2h-7v3a30 30 0 0 0 3 8l3 5c1 1 5-1 5-1h2v-3l-1-1 1-8-1-1h-1z"/>
  <path fill="#f9aa51" stroke="#953220" stroke-linecap="round" stroke-linejoin="round" stroke-width=".5" d="M307 278h1c1 1 1 0 1-1l-2-2-2 3 1 2-1 3 1 4-1 3 2 2 3-2-2-2-1 1m26-11-1 1-1-1 2-2c1 0 2 1 2 3l-1 2 1 3-1 3 1 3c0 2-1 2-2 2s-2 0-2-2l1-2 1 2"/>
  <path fill="#953220" d="m310 289 1 2 9 1 9-1 2-2h1-1v2l-1 1-2 1h-15l-3-1a4 4 0 0 1-1-1l1-1-1-1zm20-12h1l-2 3-1 2h-6l-1-2 8-3z"/>
  <path fill="#231f20" d="m346 276-1-1v-2l1 1v2zm11-3 1 1 1 1h-2a8 8 0 0 1-1-2h1z"/>
  <path fill="#231f20" d="M360 274h-2l-1-1 1 1h2zm5-4h-2 2zm-8-11-1 1v1l1-1v-1zm-5 3-1 1v2l1-2v-1z"/>
  <path fill="#8cbebf" stroke="#04534e" stroke-width=".5" d="m343 268-3 3s7 4 12 4 10-4 11-5l-1-6-5-3c-2 0-4 2-6 4s-2 4-5 4l-3-1z"/>
  <path fill="#0c8489" d="M342 270s7 1 9-1l6-6 2-1 1 1 2 2 1 3v2l-2 2-4 1-4 2h-4l-6-2-2-2 1-1z"/>
  <path fill="#04534e" d="m353 266 1-1 1 1-1 1-1-2zm3 1h1l1 1-1 1-1-2zm-1 5 1-1 1 1a1 1 0 0 1-1 1l-1-2zm-4-2 1-1 1 2-1 1-1-2zm-6 1a1 1 0 1 1 3 0 1 1 0 0 1-3 0z"/>
  <path fill="#8cbebf" d="M356 267h1v1l-1-1zm-1 4h2l-1 1-1-1zm-4-1 1-1 1 1-1 1-1-1zm2-5h1v2l-1-2zm-8 6 1-2 2 1-2 2-1-1z"/>
  <path fill="#231f20" d="m348 269-2 1v1h1l1-2zm4-1-1 2 1 1v-3zm1 1-1 1v1-1l1-1zm1-5-1 1v1l1-1v-1zm4 2-2 1 1 1v-1l1-1zm-1 4-1 1h-1 1l1-1z"/>
  <path fill="#04534e" d="m363 268-1 3c-2 0-7 4-11 3-5 0-10-3-10-3l-1 1h2l3 2 4 1h4l5-2 3-1 2-2v-2z"/>
  <path fill="#231f20" d="m275 242 1 2-1 1v-3zm8 7-1 2-1-1h1l1-1zm-17 1 1 1h1l-1-1h-1zm3 6 1 1a1 1 0 0 0 2-1h-3zm5 5 2-1v-1l-1 1-1 1z"/>
  <path fill="#8cbebf" stroke="#04534e" stroke-width=".5" d="M283 257s1-6-4-10c-5-5-8-3-10-2-2 2-3 7 2 11 5 5 12 3 12 3v-2z"/>
  <path fill="#0c8489" d="m268 251 1-5c2-1 7-2 9 3 3 5 3 8 2 10h-2l-5-1-3-3-2-4z"/>
  <path fill="#04534e" d="m282 258-3 1c-1 0-10-2-12-10v2l1 2 2 2 2 2 3 2h2l2 1h2l1-2z"/>
  <path fill="#04534e" d="M278 256v-1l2 1-1 1-1-1zm0-4 1-1 1 1-1 1-1-1zm-4 4h2l-1 1-1-1zm0-4 1-1 1 1-1 1-1-1zm-3 0v-1l2 1-1 1-1-1zm0-4h1l1 1-1 1-1-2zm4 0h1l1 1-1 1-1-2z"/>
  <path fill="#8cbebf" d="M271 248h2l-1 1-1-1zm-1 4 1-1 1 1-1 1-1-1zm5-4h1c1 0 0 0 0 0v1l-1-1zm-1 4 1 1 1-1-1-1-1 1zm4-1 1 1 1-1-1-1-1 1zm-4 5 1-1 1 1-1 1-1-1zm4 0 1-1v2l-1-1z"/>
  <path fill="#231f20" d="M279 249v3-3zm-4-3 1 1v1l-1-1v-1zm-3 1v2-2zm-1 0 1 1v1l-1-1-1-1zm2 4 1 1 1 1-1-1-1-1zm-3 0h1v1l-1-1zm8 3v2-2zm-1 1h1v1a9 9 0 0 1-1-1zm-3 0h1v2l-1-1v-1z"/>
  <path fill="#04534e" d="m272 244-4 3v4l-1-3 1-1 1-2 1-1h2zm10 12v-3l-3-6 1 2 2 2v2l1 1v2h-1z"/>
  <path fill="#231f20" d="m286 252 1 1v1l-1-1a7 7 0 0 1 0-1zm-5 13 1-1h2-1l-2 1zm8 3 1-1 1-1-1 1-1 1zm-1-1 1-1h1l-1 1a8 8 0 0 1-1 0z"/>
  <path fill="#8cbebf" stroke="#04534e" stroke-width=".5" d="M302 261s-5-7-13-7a7 7 0 0 0-8 7c0 1 2 5 11 5 8 1 9-3 10-4l-1-1z"/>
  <path fill="#0c8489" d="m296 256 3 3v2c0 1-5-4-9-4-3-1-7 0-7 1s-1 5 1 6l10 2h3l3-2v-1l1-2-2-2-3-3z"/>
  <path fill="#04534e" d="m289 257-1 1-1-1 1-1 1 1zm-4 2h2l-2 1v-1zm5 3 1-1 1 1-2 1v-1z"/>
  <path fill="#8cbebf" d="m286 263 1-1 1 1-1 1-1-1z"/>
  <path fill="#04534e" d="M293 265v-1h1l-1 1a1 1 0 0 1-1-1zm3-3 1 1h-1l-1-1z"/>
  <path fill="#8cbebf" d="M289 257h-2l1-1 1 1zm-2 2h-2v-1l2 1zm1 4h-2l1-1 1 1zm4-2-2 1v-2l2 1zm5 2h-1v-1l1-1v2zm-3 1-1 1a1 1 0 0 1-1-1h2z"/>
  <path fill="#231f20" d="M294 262h2c1 0 0 0 0 0a86 86 0 0 1-2 0zm-3 3 1-1 1 1h-2zm-2-5 2 1v1l-1-1-1-1z"/>
  <path fill="#231f20" d="m289 262 1-1 1 1h-2zm-4 0h2v1h-1l-1-1zm0 1h2-2zm-1-5h1l1 1h-1l-1-1zm3-3 1 1v1h-1v-2z"/>
  <path fill="#04534e" d="M300 264s-2 2-8 2c-5-1-10-3-11-5v1l1 1 4 2 4 1h7l3-1v-1zm1-3-2-2-7-5 4 2 3 2 2 2v1z"/>
  <path fill="#231f20" d="m301 256 2 1v1h-1l-1-2zm4-2 2 1v2l-1-1a47 47 0 0 0-1-2z"/>
  <path fill="#231f20" d="m306 254 2 1v1l-1-1-1-1zm7 2 1 1v1l-1-1v-1zm2 0 1 1v1l-1-1v-1zm-12 15h1l1-1h-1l-1 1zm6 2 2-1 1-1h-1l-1 2zm6 0 1-1 1-1h-1v1l-1 1zm2 0 1-1v-1l-1 1v1z"/>
  <path fill="#8cbebf" stroke="#04534e" stroke-width=".5" d="M300 264c0-2 3-8 7-8l8 2 4 3h4l5-1-4 6-1 1s-2 3-5 4h-12c-3-1-6-4-6-7z"/>
  <path fill="#04534e" d="m300 264 1-2a12 12 0 0 1 2-4l4-2 4 1a29 29 0 0 1 4 1l2 2 2 1a9 9 0 0 0 2 0h2l4-1-3 6-2 1a9 9 0 0 1-4 4h-5l-7-1a8 8 0 0 1-4-2 6 6 0 0 1-2-4c0 2 0 3 2 5a9 9 0 0 0 4 2l7 1a14 14 0 0 0 5-1 9 9 0 0 0 5-4l1-1 4-6h-5a15 15 0 0 1-4 0 6 6 0 0 1-2-1l-2-1a29 29 0 0 0-4-2h-4l-3 1a11 11 0 0 0-3 3 8 8 0 0 0-1 4z"/>
  <path fill="#0c8489" d="M324 265h-1c-1 0-12-7-15-6-4 0-7 2-7 5l1 5 8 2h7l3-2 2-1 1-1 1-2z"/>
  <path fill="#04534e" d="m307 263-1 1-2-1 1-1 1 1zm1-3 1-1 1 1-1 1-1-1zm6 2 1-1 1 1-1 1a1 1 0 0 1-1-1zm2 4 1-1 1 1-1 1-1-1zm-4 3 1-1 2 1h-1l-2-1zm-6-1 1-1a1 1 0 1 1 0 1 1 1 0 0 1-1-1z"/>
  <path fill="#8cbebf" d="m306 263-1 1a1 1 0 0 1-1-1l1-1 1 1zm4-3-1 1-1-1 1-1 1 1zm6 2h-1l-1-1h2z"/>
  <path fill="#04534e" d="m313 264-1 1-1-1 1-1 1 1z"/>
  <path fill="#8cbebf" d="m308 267-1 1-1-1 1-1 1 1zm5-3a1 1 0 0 1-1 1 1 1 0 0 1-1-1 1 1 0 0 1 1-1 1 1 0 0 1 1 1zm5 1-1 2-1-1v-1h2zm-4 3-1 1-1-1 1-1 1 1z"/>
  <path fill="#231f20" d="M315 265h2v1h-1l-1-1zm-2-5 2 1v1l-1-1-1-1zm-4 2 2 2v1l-1-1-1-2z"/>
  <path fill="#231f20" d="m309 263 2 1v1a4 4 0 0 1-1-1l-1-1zm-2-4h2v1h-1a8 8 0 0 0-1-2zm-4 2 2 1v1l-1-1a9 9 0 0 0-1-1zm0 2h3-3zm8 6 2-1h1l-1 1h-2zm-6-1 1-1h1l-1 1h-1z"/>
  <path fill="#04534e" d="m323 267-4 3a14 14 0 0 1-8 1 15 15 0 0 1-11-5l1 1 2 2 2 1 3 1 4 1h2l3-1 2-1h1l1-1 2-2zm-3-6-3-1c-2-1-5-3-9-3-5 0-6 3-6 3l2-2 2-1 1-1h2l2 1h2l2 1 1 1 3 1 1 1zm6 1h-4l-1 1-1-2h6v1z"/>
  <path fill="#0c8489" stroke="#04534e" stroke-width=".5" d="m321 280 1 1h5l1-1 1-4 1-1 3-2h3l2-1h3l1-1 1-2 1-1-1-3-2-3-3-1h-3l-3 1-5 2-5 3-1 6v7z"/>
  <path fill="#8cbebf" d="m322 279 2-4 3-4c1 0 0 0 0 0l2-1 1-2 2-2h1v1l2-1v-1h2l1 1v1l1 1h1l1-1v-1c-1 0-1 0 0 0 0 0 1 2 2 1v-2a91 91 0 0 1-2-2l-3-1h-4l-4 2-4 2-1 2-1-1-2 4-1 5 1 3z"/>
  <path fill="#8cbebf" d="m326 274-1 1v1l1 1 1-1v-1a29 29 0 0 1-1-1zm6-5-1 1v1h2v-1h-1v-1zm5 1h-1v1l1 1v-1zm-14 2h1a1 1 0 0 0 1-1l-1 1h-1v-1z"/>
  <path fill="#04534e" d="M327 276v1h-2v-1h1a2 2 0 0 0 1 0zm14-9-1 1h-2v-1l1 1a2 2 0 0 0 2-1zm-12 3-1 1h-1 1l1-1zm2 0v1h2v-1 1h-2v-1zm4-5v2h-1 1v-2z"/>
  <path fill="#04534e" d="m322 281 5-1c1 0 0-3 3-5 3-3 6-3 7-3 2 0 6-1 6-4 1-2-2-3-3-4-1-2-3-2-4-2l-4 2-1 2-4 1-1 2-1-1 1-3 4-3 5-2h4l3 1 2 3v2a5 5 0 0 1 0 2c-1 3-4 5-7 5a14 14 0 0 0-7 2l-2 6h-6z"/>
  <path fill="#231f20" d="M324 271h-1v-2 1l1 1zm3-1v-1l2-2-1 2-1 1zm-1 5c0 1 0 0 0 0l1-2-1 1 1 1h-1z"/>
  <path fill="#231f20" d="m328 274-1 1h-1c0 1 0 0 0 0l2-1zm5-6-1 1v1l1-1v-1z"/>
  <path fill="#231f20" d="m335 270-2-1h-1v1h3zm-1-5h1v-1h-1v1zm7 0-2 1v1h1l1-2zm-2 5-1 1h-2l1-1a7 7 0 0 0 2 0z"/>
  <ellipse cx="328.8" cy="207.4" fill="url(#b)" rx="2.9" ry="4.3" transform="rotate(9)"/>
  <path fill="#fcca3e" stroke="#aa8c30" stroke-width=".3" d="m295 247-1 4h1l1-4z"/>
  <path fill="#fcca3e" stroke="#aa8c30" stroke-width=".2" d="m296 245-1 1 1 1h1l-1-2z"/>
  <path fill="#fcca3e" stroke="#aa8c30" stroke-width=".3" d="m370 256-5 4h2l3-4z"/>
  <path fill="#fcca3e" stroke="#aa8c30" stroke-width=".2" d="M372 254a2 2 0 0 0-2 1v2l2-1v-2z"/>
  <path fill="#fcca3e" stroke="#aa8c30" stroke-width=".3" d="m263 233 2 5 1-1-3-4z"/>
  <path fill="#fcca3e" stroke="#aa8c30" stroke-width=".2" d="M262 231v2h2v-2a1 1 0 0 0-2 0z"/>
  <path fill="#aa8c30" d="m297 245-2 1a1 1 0 0 0 1 1v1l-1-1v-2h2z"/>
  <path fill="#aa8c30" d="M296 248h-1a49 49 0 0 1-1 2l1-3h1v1zm76 6v1h-2v2c1 0 0 0 0 0l-1-1v-1l1-1h2z"/>
  <path fill="#aa8c30" d="m369 257-2 1 2-2 1 1h-1zm-107-26v2h2c0-1 0 0 0 0h-2l-1-1 1-1zm2 3v2l-1-3h1v1z"/>
  <ellipse cx="337.6" cy="-128.1" fill="url(#c)" rx="4.6" ry="3.1" transform="rotate(63)"/>
  <path fill="#e92736" d="M263 241h1l1-1v-1a4 4 0 0 0-1-1h-1v-1l-2 2h1v1l1 1z"/>
  <path fill="#e92736" d="m264 238 1 1h1l1-1a2 2 0 0 0 0-1l-1-1v-1l-3 2h1v1z"/>
  <path fill="#e92736" d="M269 238v-2l-1-1h1-3l1 1h-1l1 1v1h2v-1zm22 12 1 1h2v-1l-1-1 1-1h-2v1h-1v1zm3 0v1h2v-1l1-1-3-1 1 1-1 1z"/>
  <path fill="#e92736" d="m297 253 1-2h1l-2-2v1h-1v2l1 1zm66 5 1 1v1h1a3 3 0 0 0 1-1v-2h-2l-1 1z"/>
  <path fill="#e92736" d="M366 259h-1v1l1 1 1-1h1v-1l-1-1-1 1z"/>
  <path fill="#e92736" d="M366 262h3l-1-2s0 1 0 0a2 2 0 0 0-1 0h-1v2z"/>
  <path fill="#f7e204" d="M264 239v1h-1v-1h1zm0-1h1l1 1v-2l-2 1zm3-2v1l1 1 1-2h-2zm26 14-1 1v-2h1v1zm1-1v1l1 1 1-1-1-1zm3 1-1 1 1 1 1-1-1-1zm68 9h-1v-1l1-1v2zm1 0v1h1l-1-1zm1 2-1 1h2v-1z"/>
  <ellipse cx="438.6" cy="-93" fill="url(#d)" rx="2.2" ry="4.5" transform="rotate(48)"/>
  <path fill="#a8ac71" d="M286 199h-7c-3-1-2-7-2-7l-1-4 6-5h1l2-1 1 1-2 2-1 2-1 2v2l3-1 2-1-2 2-3 1s-1 2 1 3l4-1-1 5zm-15 16s2 1 2 3l-2 8c0 4 0 4 6 9a6 6 0 0 1 1 2c1 1 1 9 6 9s6-3 6-3l-2-3h-3a3 3 0 0 1-2-2l-2-6c-2-3-5-3-5-7 0-3 2-3 1-7 0-4-5-6-5-6l-2-1-1 4h2z"/>
  <path fill="#f1a720" d="M285 188v-5l-1 1 1 2v2z"/>
  <path fill="#a8ac71" d="m288 232-1-1c-1-1-3-3-3-9 1-7 11-11 12-14s3-4-5-11l-2 2 3 3h1l-1 3-6 5-3 2-3 4v6s0 8 8 9z"/>
  <path fill="#78732e" d="M283 236v2l-1 1h-2l-1 1v-1l-1-1 2 1h1v-1l1-1 1-2zm-5 0-1-1-1-1 1-1h1v3zm3-4 1 1v1h-2l-1-1 1-1h1zm-1 12-1-1v-2h3v1l-2 2zm5-5h-1l-1-1v3h1l1-1v-1zm-5 5 2 1 1 1v-1l1-1v-1l-3 1h-1zm5-1 2-1v-2h-2v3zm-2 3 5-1 1-1h-1l-1 1-4 1zm-3-21v-2h1l1 1-1 1h-1zm2 4v-1a12 12 0 0 1-1-1h1l1 1v1h-1z"/>
  <path fill="#c6c7a6" d="M277 187v2l5-2 1-3v-1h-2l-4 4z"/>
  <circle cx="282.5" cy="183.6" r=".4" fill="#1c242f"/>
  <path fill="#a8ac71" d="M280 184a18 18 0 0 0-2 2l3-2 2-1c1 1 0 0 0 0h-1l-2 1z"/>
  <path fill="#78732e" d="M284 225v-3l-1 1-1 1 2 1zm-4-3v-6l1 2 1 2 1 1-2 1h-1zm4-1v-1l1-1a25 25 0 0 0-2 2h1m-3-6 1-1 1-2v2l1 2v1h-3v-2zm4 3 1-1 1-1-3 1v1h1zm-2-6 2-1 1-1v3h-1l-2-1zm4 4 2-2-3-1 1 2zm2-5v-3l-2 1-1 1h1l1 1h1zm2-3v-3 1l-1 1 1 1h1zm2 3 1-1a7 7 0 0 0 2-2h-4v2l1 1zm-10-13v1h3l-1-1-1-1zm7 16 1-2h2l-4-1v2l1 1zm6-6v-5l-2 2v1l1 1 1 1z"/>
  <path fill="#78732e" d="m292 205 1-2h3l-1 1-1 1h-2zm4-2-1-2-1-1-1 3h3z"/>
  <path fill="#fff" d="m272 222-1 1 3-1 2 2v-1l-2-2-2 1zm0-6 1 1 1-2h2l-1-1-2 1a4 4 0 0 0-1 1zm5 5-2-2-2 1h-1 3l1 2 1-1zm-5-5 1-2a5 5 0 0 1 1-1h-1l-1 1a3 3 0 0 0 0 2zm-1-3 1-1-1 1-1 2h1v-2zm8-19h2s-2 1-1 3l-1 2h1v-2l2 2h1v-2a5 5 0 0 0 3 1s-2-1-2-2a4 4 0 0 1 1-1h1v-1h-1l-2 2a9 9 0 0 1 0-1l-1-1-2 2 1-2v-1l-2 1-2 1v1l2-2zm2 2 2-1v2l-1 2-2-2a2 2 0 0 1 0-1h1zm-8 21v1l2-1 2 1v-1l-2-1-2 2zm21-11v-1a13 13 0 0 0 2-2h-3v-2l1-1-1-1-1 1-2-1 2 1h1v1l-1 1h1v1h3l-2 2-1-2v2a5 5 0 0 1-1 0h-1v3l-1-1h-1v4a5 5 0 0 1-3-1s-1 1 0 3l-3-1a60 60 0 0 0 0 5c-2 0-3-2-3-2v1l2 4v1l-2 1v1a45 45 0 0 0 2 1 5 5 0 0 1-2 1v1l2-2 2 1v-1h-1l1-2v-1h-1l2-2v-1l-1-1 3-1-1-2h4l-1-3 3 1 1-1-1-3a5 5 0 0 0 1 0h3l-2-2zm-10 16-2 2-2-2 3-1 1 1zm1-3-2 2a4 4 0 0 1-1-1l-2-4 3 1a14 14 0 0 0 1 0l1 2zm2-3-3 1a5 5 0 0 1 0-1l-1-4 3 1 1 3zm-1-3v-3l3 1v2h-3zm6-2h-3a23 23 0 0 1 0-3h2a10 10 0 0 0 1 3zm0-3v-3h1l1 1 1 2h-3zm-8 18-1 1-2-1v1l2 1-1 1h1v-1h1v2h2-2v-1l1-1-1-1h-1a3 3 0 0 1 1-1zm-11-1 2 1v-1l-2-1-2 1v1l2-1zm13 19-2 1v-1c3-1 3-3 3-3v-1l-2 3v-3l-2 1a8 8 0 0 0 0-3s-1 1-2 1l2-3-1-1-1 3a11 11 0 0 1-1 1l-2-1 2 1a27 27 0 0 1-1 1v1l3 1-2 2h4l-1 2 3-1 2-2-2 2zm-7-3 2-2h2l-1 2-3-1zm2 3 1-2c2 0 3-2 3-2l-1 3h-3zm-2-10h3l-3-1a4 4 0 0 1 2-2h-1l-1 2a4 4 0 0 0-1 0 5 5 0 0 0-2 1h3a26 26 0 0 0-1 2v1l1-3zm-3-7h-3l-2 2v1l2-2h3zm3 3-1-1-2 1-1 3v1l2-3 2-1zm-4-1a5 5 0 0 1 2-1h-1l-2 1-2 2 1 1 2-3zm5-44 2-1h1a9 9 0 0 0-1 2l-1 2-1 3v2l1-1-1-1 1-3 1-2 1-2-1-1-2 1-2 2 2-1z"/>
  <path fill="#78732e" d="M285 195h-2v2zm-3-1a2 2 0 0 0-1 0h-1v2l2-2zm0 5-2-2-1 2h3zm7 45a9 9 0 0 1-5 2 7 7 0 0 1-3-1 4 4 0 0 1-1-2l-1-4-2-4-3-3a7 7 0 0 1-3-5 8 8 0 0 1 0-1l1-4 1-4-1-2-2-1h-1 1l2 1 1 2-1 3a12 12 0 0 0-2 5v1a8 8 0 0 0 3 5l4 4 1 5 1 2 2 2a7 7 0 0 0 4 1l4-2z"/>
  <path fill="#78732e" d="M287 239a3 3 0 0 1-1 1l-2-1a4 4 0 0 1-1-3l-1-3-3-4-3-3a3 3 0 0 1 0-1v-3a11 11 0 0 0 1-5c0-2-1-3-3-4a14 14 0 0 0-3-1l3 2 3 3v1l-1 4-1 3v1l3 4 4 3 1 4 1 2 2 1a3 3 0 0 0 1 0v-1z"/>
  <path fill="#a8ac71" d="m296 232 2 1a13 13 0 0 1-1 4l-2-2 1-2h1l-1-1z"/>
  <path fill="#f8c83c" stroke="#977c2e" stroke-width=".3" d="m266 215-2-1v-1l-1-1 2-1 1-2 1 1-1 4z"/>
  <path fill="#f8c83c" stroke="#977c2e" stroke-width=".3" d="M268 215h-2v-2l-1-1 2-1 1-1 1 1-1 4z"/>
  <path fill="#f8c83c" stroke="#977c2e" stroke-width=".3" d="m271 215-2 1-1-2v-1l1-1 2-2 1 2-2 1 1 2z"/>
  <path fill="#af7029" d="m294 231-3-2c0-2-2-3-2-3l-2-1-1-3-1-2 1-2 1-1s-5 2-2 10c1 4 3 5 3 5l4-1h2z"/>
  <path fill="#816c2a" d="m292 202 1 1-8 7a14 14 0 0 0-4 4 12 12 0 0 0-2 7c0 5 2 8 5 9a10 10 0 0 0 5 2h2a36 36 0 0 1 3-1l1 1h1v2h-1v1a4 4 0 0 0 1-1l1-2h-1l-1-1h-6v1-1a9 9 0 0 1-5-1c-2-1-4-4-4-9l1-7 6-5a14 14 0 0 0 6-6v-1l-1-1v1z"/>
  <path fill="#fff" d="m298 233-2 2h2l-1 1-2-1v-1h2a4 4 0 0 0 0-2l1 1z"/>
  <path fill="#fcca3d" d="m302 234-3 1-1-1v-2l-2-1h-3l-5-5h5l3-1 1 1h2l1 1 1 2 1 1v4z"/>
  <path fill="#af7029" d="M302 234h-4v1l-1 1v3l3 1 1-1 1-3v-2z"/>
  <path fill="#fcca3d" d="M302 233v1-1zm-3-30v-3l-1-1-1-2-1-1h-1v-1h-3l-2 2 6 6a7 7 0 0 1 2 1h1v-2z"/>
  <path fill="#af7029" d="M296 205v4l1-2 2-3a7 7 0 0 0-3-1v2z"/>
  <path fill="#816c2a" d="m300 238-1-2-1-1-1 1h1l1 1a18 18 0 0 1 1 1z"/>
  <path fill="#6f5b24" d="m302 236-1 1-3 2 3 1 2-2-1-2z"/>
  <path fill="#404118" d="M302 238v1h-1l1-3 1 1v1z"/>
  <path fill="none" stroke="#78732e" stroke-width=".2" d="M286 199h-7c-3-1-2-7-2-7l-1-4 6-5h1l2-1 1 1-2 2-1 2-1 2v2l3-1 2-1-2 2-3 1s-1 2 1 3l4-1-1 5z"/>
  <path fill="#ab6d29" stroke="#4d2a15" stroke-width=".4" d="M319 171s-7-2-7 4c0 2 0 3 2 3l7 3c2 2 2 4 2 5v3l1 7 2 6 5-3 3-8-4-15-11-5z"/>
  <path fill="#4d2a15" d="m326 200 3-3-3-3 2 1 2 1v-3l-2-3h-2 3l1 1-1-4-2-2h-2 4l-1-3a7 7 0 0 0-2-1l-2-1h3-1l-4-2h-3l1-1h1l-3-1h-5l1-1h1c1-1-1-2-1-2l1-1h4l8 5 4 4 3 6-1 11-6 4h-2l1-2z"/>
  <path fill="#d2a567" d="M318 173v-2s-2-1-4 1c-2 1-1 4-1 4l2-1h3l-1-2h-2 3z"/>
  <path fill="#8f4620" d="m327 201-2 1 1 7 7 12 4-1 1-2 1 1 3 3 3 1 5 7v-3l-2-3-1-2v-1h2l1 1 2 1 1 2v1l1 1v1l1 3 1 2 1-1-1-3-2-6-1-2 2 1 2 3 1 2v2l1 2v1h1v-2l-1-4v-4h1a9 9 0 0 1 1 3l1 4 1 4 1 3 1 3 1 1v-2l-2-16h1l1 2 1 3v5l1 3 1 4 1 2 1-2-1-18 2 1v1l1 4v11l1 3 3-29h2v-1l-1-1-4-5-2-4-3-7-7-8-5-5a20 20 0 0 0-2-1v-1l1-2h-1l-2 1-2-1-5-3-4-2-3-1-7-2-6-1h-6l-2 2v3l3 2 6 4 2 2 1 1v1l1 11-2 6-2 1z"/>
  <path fill="#ab6d29" d="M334 218s1 2 3 1c1-2-1-6-1-7h1l1 2v3l-2 4h-2v-3z"/>
  <path fill="#4d2a15" d="m375 244-1-4-1-4v-12l-2-2-1-1h2l-1-5-4-8 1 1 2 2 4 1 2 1 2 2 1 8-1 7-2 11v3h-1z"/>
  <path fill="#8f4620" d="m375 231 2-2-1-14a10 10 0 0 0-4-2l1 3v2l1 1 1 7v5z"/>
  <path fill="#4d2a15" d="m369 238 1-9-1-5a32 32 0 0 1-3-6l-2-6-2-2v1h-2v-5l2 2 4 3 2 8 2 6 1 9-1 8-1-4zm3-25 1 2 2 1a8 8 0 0 1-2-1l-1-1v-1z"/>
  <path fill="#4d2a15" d="M364 236v-4a49 49 0 0 0-1-9l-4-4-2-5-2-3v-3l4 2h1l2 9 2 3 1 3 1 8v7l-2-4zm-5-4v-4l-2-5-4-5-4-5v-4l2 2a57 57 0 0 1 3 1l1 4 1 2 1 3 2 1v4l1 2 1 3-1 2-1-1zm-2 0-1-1v-2l-1-3-1-3a121 121 0 0 0-5-4l-4-3-1-1-1-4 2 2a55 55 0 0 0 2 1l3 5 1 1 3 2 1 3 1 2 1 3v3-1zm-6-1-2-3v-2l-4-5-3-4v-1l1 1 4 5 2 2 1 3v2l1 2zm16-23s3 4 4 0l-1-4-4-6-6-8-3-1 1 2 6 8 3 9zm-18-23 10 11c4 6 6 9 5 10s-4 0-5-2c0-2-1-4-5-9l-5-4-3-5 3-1zm-3 13 6 5a37 37 0 0 1 3 4l2 1-1-1 1-1-11-12v3zm-1 0 3 4a465 465 0 0 0 4 4l1 3-5-3 1 3-1-1-3-3-1-3-1-4h2z"/>
  <path fill="#4d2a15" d="M330 210s2 3 4 0v-5s4 6 5 0l-2-4 1-1 2 3 1-3c0-3-2-5-2-5l2 2s4 0 4-2-3-4-3-4 2 0 2-2l-3-3c0-1 1-3 2-2 2 1 4 2 5 0v-2h-2l-4-2-3-1h-2l1 2v8l1 6-1 4-1 1-1 1-1 3-1 1-3 3-2 2z"/>
  <path fill="#ab6d29" d="m349 221-2-3a8 8 0 0 0-4-1l4 4h2zm5 1-2-4-3-4h-1v3l3 3 3 2zm5 0-2-6-3-4v3l1 3 2 3 2 1zm4-2v-8c-1-2-3-2-3-2v5l2 4 1 1zm4-10 2 2a40 40 0 0 1 2 9h-1l-3-6-1-5h1z"/>
  <path fill="#d2a567" d="m340 217 2-1-2-3 2-1s-2-3-1-4 2 3 2 3l1 3c-1 4-4 3-4 3zm5-5 3 1-3-3v-2h2l-2-4 1 1 2 3c1 1 2 2 2 5-1 2-5 0-5-1zm14-4-1-2 2-1-3-1h-1l1 2 2 2z"/>
  <path fill="#d2a567" d="m349 209 5 1-3-4-1-1 3 1v1s1 3 2 2l-1-3 3 2 3 1v-2 3h-3l-1-1v-1l-1 3h-3l-3-2zm11-3 5 3c1-1-1-8-1-8 1-1 4 7 3 9h-2l-3-1-2-3zm14 13h1l1 1h-2v-1zm-5-17 1 1h-1v-1zm-1-2h1v-1l-1-1h-2l2 2zm4 14 2 1 1 1h-3v-2zm-8-22h1v1l-1 1a48 48 0 0 1-2-2h2zm-7-7h1l2 1v4l-3-2-2-3h2zm-3-1 2-1a3 3 0 0 0-2-3l-2 2 2 2zm-7-3h1l4-3h2v2l-4 2h-2a10 10 0 0 1-1 0v-1zm-1-4c0-2-1-2-2-2 0 0 2 1 2 3v4h1v-4l-1-1zm-5-2a15 15 0 0 0-6-4l5 4 1 4h1v-3h-1v-1zm-6-3c-2-2-7-3-10-3s-5 1-5 2 2 3 5 3h5a10 10 0 0 1 4 2l-3-2-2-2h2c2 0 4 1 5 3l1 3 1-1-1-1-1-2-1-1zm-10 29c2 0 5-3 6-7l-3-13 2 1a25 25 0 0 1 2 11c0 4 0 5-3 7l-4 2v-1zm6 11 1 1c2 0 4-2 4-4l-2-3v-1h2v3h2l2-3-2-3v-2l1 1 1 2h1l2-3-2-2v-1h3l2-2-1-2h1l1 1v2l-2 2-1 1h-1l1 1v2l-1 1-2 1v2l-1 2-2 1h-1v2l-1 2-3 1h-1l-1-1v-1z"/>
  <path fill="#d2a567" d="M343 191s4 2 4-1l-4-5v-1l2 1h3v-3h2v3l-2 5s1 2-1 2c-2 1-4-1-4-1zm4 30-1-2-3-2a63 63 0 0 0 3 4h1zm6 0-3-3-2-3 1 3 3 3h1zm5 0-2-4-2-4v1l1 3 2 3 1 1zm4-2-1-5-1-3v3l2 5zm8 2-2-5-2-4v3l2 5 2 1zm7-9-4-2-5-1 1 1 3 2h5z"/>
  <path fill="#202020" d="m348 214 1 4 5 4 2 6 1 5 1 2-2-2v-2l-2-8-7-6-1-3h2z"/>
  <path fill="#202020" d="m355 229-2-4a16 16 0 0 0-4-4h-2l-4-4 4 5 3 6 1 2 1 2v-1a10 10 0 0 1-2-3l-2-6-1-1h2l4 4 2 4 2 4-2-4zm-6-20 4 2a10 10 0 0 0 1 0l2 7 3 4 2 8 1 8c-1 0-2-2-2-5l-2-6a13 13 0 0 0-3-4c-1-1 0-1 0 0l3 4 2 5v-1l-1-4a17 17 0 0 0-1-5l-2-3a20 20 0 0 1-3-5v-2h-2l-2-3zm7 0 2 1h2l1 7 4 5v6l1 9v10l-1-7-3-8-1-8-2-2s2 0 2 2l2 8c1 5 3 7 3 7l-1-9-1-8c-1-1-3-2-3-4l-2-6-1-1-2-2z"/>
  <path fill="#202020" d="m360 206 3 3 3 1c1 0 0 4 2 7l2 4 1 14c0 3 1 15-1 15s0-9-1-11l-1-3-2-11-1-3 2 3 1 11 2 4a157 157 0 0 0 0-16c-1-1-4-7-4-10l-1-3-2-2-3-3z"/>
  <path fill="#202020" d="m367 208 4 3 6 1 2 10c0 6-1 5-2 10l-1 17-1 1-1 3-1-2 1-6-1-6v-15l-3-3 3 3 1 15v-2l1-10-2-11 1 2 1 1 1 1-1-1h-1a24 24 0 0 1 1 8v16c1 1 1-6 2-11l2-10-3-9c-1 0-3 0-5-2l-4-3zm-35 6h1l4-4v-1l3-2a8 8 0 0 0 0-3h1l3-3-1-3h1l3-2c0-2-1-3-3-4h3l1-2-3-4h3l1-3-1-1h3l4-2-3 2 3 2v1h3l-2 1a34 34 0 0 1 6 5l1 1h1-2a65 65 0 0 1 4 5h1l1 1h-2a82 82 0 0 1 4 6l-7-10-5-4 5 6 3 6-9-12-7-6v5l7 7 7 11-8-10-7-7-1 2-2 1 5 5h2l2 1h-3l4 4 2 1 2 1-3-1h-1l3 4-8-8c-3-3-4-3-5-3v1l-2 1 5 5a149 149 0 0 1 4 5l-4-4-4-3v1l4 6-5-6-1 1-2 1 7 7-6-5 2 6-3-5-1 1-2 1 4 6-5-5 1 4-2-3-1 1-1 1 1 2 1 2-1-2-2-2-1 1-1-1z"/>
  <path fill="#202020" d="M377 212h2l-2-2c-1-2-5-12-9-17-7-9-13-13-13-13s7 4 13 12c6 9 7 15 9 17 1 2 3 2 3 2l-1 1-2 1v-1zm-48-2 3-3-2-1-1-1 1 1h2l3-3h-2l-1-2 2 1h2s2-3 1-4h-1l-2-2 2 1c1 1 2 0 2-1v-4h-2l-2-2 2 1 2-1a6 6 0 0 0 0-3l-1-2h-2l-2-1 2 1a2 2 0 0 0 2-2l-1-2-1-2-2 1-2-2 2 1 2-1-3-3a58 58 0 0 0-3-3 22 22 0 0 0 7 5s1 1 2 0l-1-2-2-3 2 3 1 3 4 1v-2l-1-2 1 2 1 2-1 1 2 1 3 1v-3l-1-2 1 2v3h1-2l-8-3 5 4 2 3-2-2-5-2 1 1-1 1 5 4-1 2-3-2 1 2v1l2 3-1 2 2 2-2-1-2-2-1 3 2 2v3l-2-2h-1s-2 2-1 3l1 1a3 3 0 0 1-1 3l-2-3-2 3 1 2h-4z"/>
  <path fill="#202020" d="m355 180 1-1 1-2h-3l-5-2s-9-7-24-7c-4-1-6 1-7 2 0 0 2-2 6-2 2 0 17 1 24 7 1 0 3 3 5 2h3l-1 2a9 9 0 0 0 0 1zm-25 2-3-3a37 37 0 0 0-8-5l8 5 3 3z"/>
  <path fill="#d2a567" d="m330 192-2-1a10 10 0 0 0-2-1h3a5 5 0 0 1 1 2zm-1-5-2-1-2-1h3a3 3 0 0 1 1 2zm-1-5-2-1-2-1 3 1 1 1zm-2-2-3-2h-4 5l2 2zm-5-3-4-1h-4l6-1 2 1z"/>
  <path fill="#f8c83c" stroke="#977c2e" stroke-width=".3" d="m305 238 2 2c2 0 3 3 3 3l-2 1-4 1-2-3 3-4zm0-1-3-4v5l3-1z"/>
  <path fill="#f8c83c" stroke="#977c2e" stroke-width=".3" d="m304 241 1 1 1-1m-3-1 2-3-1-1a7 7 0 0 0-2 2l1 2zm-2 2 1 1 2-1-1-2h-2v2z"/>
  <path fill="#f8c83c" stroke="#977c2e" stroke-width=".3" d="m303 240-2 1-1-1 1-1 1-1 1 1v1z"/>
  <path fill="#f8c83c" stroke="#977c2e" stroke-width=".3" d="m302 241-4 3 1-5 1 1 2 1z"/>
  <path fill="#f8c83c" stroke="#977c2e" stroke-width=".3" d="m297 238 4 2-3 1-1-3z"/>
  <path fill="#202220" d="m289 243 2 2 3-1-4-2-1 1z"/>
  <path fill="#4b4139" d="M289 243v1l2 1 3-1-4-2-1 1 1-1 4 2h-1l-2 1a2 2 0 0 1-1-1 3 3 0 0 1-1 0v-1z"/>
  <path fill="#202220" d="m290 243 2 1 4-1-3-3-3 3z"/>
  <path fill="#4b4139" d="m290 243 2 1 4-1-3-3-3 3 3-2 3 2a5 5 0 0 1-4 1 3 3 0 0 1-2 0 2 2 0 0 1 0-1z"/>
  <path fill="#4b4139" d="m290 243 2 1h2-3l-1-1z"/>
  <path fill="#202220" d="M292 242s1 2 3 1l2-1-2-3-3 3z"/>
  <path fill="#4b4139" d="m292 242 1 1 2 1v-1h2v-1l-2-3-3 3 3-2 2 2-2 1a2 2 0 0 1-2 0 4 4 0 0 1 0-1h-1z"/>
  <path fill="#4b4139" d="m293 242 2 1a3 3 0 0 0 1 0h-3v-1zm-4 2 2 1a5 5 0 0 0 2-1l-1 1h-2l-1-1z"/>
  <path fill="#f8c83c" stroke="#977c2e" stroke-width=".3" d="m297 238 2 4-1 2-3-2v-2l2-2zm-8 1-2-1v3l2-1v-2zm0 1-2 1 1 1h2l-1-2z"/>
  <path fill="#f8c83c" stroke="#977c2e" stroke-width=".3" d="m290 241-2 1 1 2 1-1-1-2zm0-5h-1l-1 2v2l3-1-1-3z"/>
  <path fill="#f8c83c" stroke="#977c2e" stroke-width=".3" d="m291 238-3 2 1 2 3-2-1-2z"/>
  <path fill="#f8c83c" stroke="#977c2e" stroke-width=".3" d="m293 242-3 1-1-2 2-1c1-1 2 2 2 2zm2-9h-2c-2 0-3 2-3 3v3l4-2v-3z"/>
  <path fill="#f8c83c" stroke="#977c2e" stroke-width=".3" d="m292 240-2-2 3-2 1 3-2 1z"/>
  <path fill="#f8c83c" stroke="#977c2e" stroke-width=".3" d="m295 240-2 2-2-1 1-2h2l1 1z"/>
  <path fill="#f8c83c" stroke="#977c2e" stroke-width=".3" d="M293 237v2l2 2 2-1 1-2-1-2c-1-1-2 0-4 1z"/>
  <path fill="#202220" d="M296 233h-2l-1 2v3l2-1 1-1-1-2 1-1z"/>
  <path fill="#4b4139" d="M296 233h-2a3 3 0 0 0-1 2v1-1l1-2h2z"/>
  <path fill="#f8c83c" stroke="#977c2e" stroke-width=".3" d="m329 257 1-1 2-1 1 2-2 2h-1l-1-1v-1zm-3 0h3v2l-2 1-1-1v-2zm12-1v-1l-3-2v5h3l1-1v-1z"/>
  <path fill="#f8c83c" stroke="#977c2e" stroke-width=".3" d="M326 257h-1l-2 1v3l3 1 6-4h-3l-1 1-2-1v-1z"/>
  <path fill="#f8c83c" stroke="#977c2e" stroke-width=".3" d="M330 259h-1l-1 1v2h2l2-1v-2h-2zm10-1v-1l-1-1-2 2v1l1 1h1l1-1v-1z"/>
  <path fill="#f8c83c" stroke="#977c2e" stroke-width=".3" d="m333 257-2 1-1 1 1 1h1l3-1v-2h-2zm9 2v-1h-2l-1 1v1l1 1h2l1-1-1-1z"/>
  <path fill="#f8c83c" stroke="#977c2e" stroke-linecap="round" stroke-linejoin="round" stroke-width=".3" d="M338 261h1v1h1l1 2h3l2-3h-1s1-2-1-2h-2l-1 2a2 2 0 0 1-1-1l-1-1h-1l-1-1h-1v-1l-2 1-1 1-2 1-1 2-2-2-2 1-1 1 1 3h3c2-1 1-2 1-2h1l2-2"/>
  <path fill="#f8c83c" stroke="#977c2e" stroke-width=".3" d="M336 251v7h-4v-4l4-3z"/>
  <path fill="#f8c83c" stroke="#977c2e" stroke-linecap="round" stroke-linejoin="round" stroke-width=".3" d="m333 261 1 1 1-1v-1c1 0 0 2 2 2l1-2"/>
  <path fill="#202220" d="M321 263v-2h2l1-1a4 4 0 0 0-1-2s-3 1-3 3l1 2zm5 5v-2h1v-2l-1-2c-1 0-3 2-2 4a4 4 0 0 0 2 2zm18-1s4 1 4-2l-2-4-1 1-1 2 2 1c0 2-2 2-2 2z"/>
  <path fill="#4b4139" d="M326 268s-3 0-3-3l3-3s-2 1-2 3c0 3 2 3 2 3zm-5-5-2-2c0-3 4-3 4-3s-3 1-3 3l1 2zm23 4h2c1 0 2 0 2-2l-1-3-1-1 1 1 1 3-3 2a6 6 0 0 1-1-1z"/>
  <path fill="#904720" d="M303 192h-1v-1h2l2-1h2l1 1 1 2-4 2v1l-1-1v-2z"/>
  <path fill="#202020" d="M337 246v-6l-15 5 6 5z"/>
  <path fill="#d2a567" d="m309 236-1-1-1-1h-2l1 1 1 2 2 1h1l1 1-1-3zm0 2h1l1 1v1l1 2v1l-1-1-5-1v-1l1-1h1l1-1z"/>
  <path fill="#d2a567" d="M312 242h2l-1-2 1-6-4-5-1 3 1 5 1 3z"/>
  <path fill="#ab6d29" d="M309 232v2c1 1 1 5 3 7l-2-2s-2-5-1-8v1zm3 3-1 1v3l1-2 1 3v-5h-1zm1 9-5-1-3-2h4l3 1h1l2-1v2l-2 1zm-8-1 1 1a4 4 0 0 1-2 1l4 1 1-1-4-2z"/>
  <path fill="#d2a567" d="m304 242 2 1h4l-1 2-3-1-1-1-1-1z"/>
  <path fill="#ab6d29" d="m314 240 1 1v-5l-1-1z"/>
  <path fill="#4d2a15" d="m310 236-2-2-1-3 1-2 1 2v2l1 3z"/>
  <path fill="#d2a567" d="m301 244 2-1a8 8 0 0 1 2 0l3 2h-5l-2-1z"/>
  <path fill="#8f4620" d="M314 235v4l1 2-1 1h-2 1v-3l-1-2v1-4c1-1 2 1 2 1z"/>
  <path fill="#ab6d29" d="m305 243-1-1s1 2 4 2l2-1h1v2a61 61 0 0 0-2 1l-1 1v-3l-3-1z"/>
  <path fill="#8f4620" d="m310 236-5-5v-6l3 4v2l2 5z"/>
  <path fill="#ab6d29" d="M308 248v-1c2-3 7-4 7-4v2l-6 3h-1z"/>
  <path fill="#8f4620" d="m308 246 1-1-2-1-2-1 2 2h1v1zm8 1-1-2v-3l-1 1-2 1h2l-3 1h2l-2 2-3 1h4l4-2v1z"/>
  <path fill="#ab6d29" d="m316 247-1-5-1-6 2 1 1 4-1 6z"/>
  <path fill="#8f4620" d="m317 239-1 4v4l2 2 1-1v-5l-2-4z"/>
  <path fill="#202020" d="M319 243s1 6-1 6l-2-2 2 2 1-7v1zm-3 4v-1c-1-1 0 0-4 2h-4 4l4-1z"/>
  <path fill="#ab6d29" d="m310 239 1 1a363 363 0 0 0 1 2l-1-2-2-3 1 2z"/>
  <path fill="#8f4620" d="M308 247v-2h-3a34 34 0 0 1-4-1l3 1 3 1h1v1z"/>
  <path fill="#202020" d="M308 247v-1l-4-1-3-1 3 2 4 1z"/>
  <path fill="#ab6d29" d="m309 238-2 1-2 2h1l1-2 2-1z"/>
  <path fill="#8f4620" d="m305 234 2 2 2 1 1 2-4-2a10 10 0 0 1-1-3z"/>
  <path fill="#8f4620" d="m308 235-1-1h-2c-1 0 0 0 0 0l1 2h1l-1-2 2 1z"/>
  <path fill="#202020" d="m316 231 17-9 8 12-14 4h-8l-4-3z"/>
  <path fill="#4d2a15" d="m339 236 21 18-2 2-5-2-11-10-3-4z"/>
  <path fill="#4d2a15" d="m366 251-12-10-15-11v5l17 16 6 3 3-1 2-1-1-2z"/>
  <path fill="#803f1d" d="m339 238 11 10 10 7v-1l-21-18v2z"/>
  <path fill="#4d2a15" d="m354 255-2 2-3-1-13-13 1-3h2z"/>
  <path fill="#202020" d="M366 251s-2 3-5 2c-3 0-22-18-22-18v2s19 17 23 18c3 0 6-3 6-3a44 44 0 0 0-2-1z"/>
  <path fill="#803f1d" d="m337 240 9 11 7 5-1-2-9-9-4-5h-2z"/>
  <path fill="#202020" d="m338 240 17 16c2 1 6-2 6-2h-2s0 2-4 1c-3-1-16-15-16-15h-1z"/>
  <path fill="#4d2a15" d="m344 255-5-6-2-2v-3l11 11-1 1h-2z"/>
  <path fill="#202020" d="M354 256s-1 2-3 1a5 5 0 0 1-3-2l-10-10-1-2s12 13 14 13c1 1 3-1 3-1z"/>
  <path fill="#202020" d="M348 255s0 2-2 1h-2l-6-8-1-2 9 10 2-1z"/>
  <path fill="#b07229" d="m341 235 7 6h3-2l4 4h3-2l4 3 4 1h-3l4 4-5-3-1 1v-2l-4-3v2-3a16 16 0 0 0-4-3v2l-1-2-7-7z"/>
  <path fill="#4d2a15" d="m331 252-1 3c-2 0-4-4-4-4v-5l3 3 2 3zm8-1v-2l-1-3v-2l-1-1-2 2v4l1 3h1l2-1z"/>
  <path fill="#4d2a15" d="m337 255-1-3-2-5v-2h-2l-1 1 1 2 2 4c1 1 2 4 3 3z"/>
  <path fill="#202020" d="M335 245a6 6 0 0 1 1 3l1 4 2 2v-3h-1l-1-5v-2l2 4v1-3l-1-2v-3l1 1 1-2v-6l-7 9 2 2z"/>
  <path fill="#202020" d="m335 244 1 5 1 3v3l-3-6-1-3v-1l2-1z"/>
  <path fill="#4d2a15" d="M334 257v-3l-2-5-3-3-1-2v4l3 5 3 4z"/>
  <path fill="#202020" d="M325 246v3l2 4 2 3 1-2-1 1a40 40 0 0 1-2-7h-1a18 18 0 0 1-1-2zm7 6-2-4-1-1-1-2 2 1 2 1v4z"/>
  <path fill="#5c3a1d" d="m327 248 2 3 2 3-2-3a14 14 0 0 1-2-3z"/>
  <path fill="#202020" d="m332 247 1-2h1l-1-1-1-1v4zm0 0 2 6v3-3l-3-5 1-1z"/>
  <path fill="#4d2a15" d="m334 244 1-6-1-2-3-6v1a6 6 0 0 1-3-2 9 9 0 0 0-1 5l6 10h1z"/>
  <path fill="#8b441f" d="m324 248 1 1v-3l-8-10 7 12z"/>
  <path fill="#8b441f" stroke="#5c3a1d" stroke-width=".1" d="M328 245v3c-2 1-9-9-10-10l-4-4 4 1 10 9v1z"/>
  <path fill="#202020" d="m324 248-1-2v-2l-6-8-2-1a16 16 0 0 0 0 2s1 3 4 6a458 458 0 0 0 5 5z"/>
  <path fill="#4d2a15" d="M332 247v-3a458 458 0 0 0-5-10h-1l-2-1-2-2 1 3v2l3 6 6 5zm4-5 1-1v-5l-3-9-1-1-2-1 1 6 3 8v2l1 1z"/>
  <path fill="#202020" d="m328 244-4-4-2-3h-1l-3-2 4 5c4 5 6 4 6 4z"/>
  <path fill="#8b441f" d="M334 245c2 0 1-5 0-9l-3-6 3 8v3l-1-3-2-3 2 9-5-10h-1s4 12 7 11z"/>
  <path fill="#4d2a15" d="m337 221 2 5 1 4v4l-1 7-1-1a2729 2729 0 0 1-2-8l-2-9h1v-1h1l1-1z"/>
  <path fill="#8b441f" d="M332 247v-2h-2l-1-3v-1l-2 1-4-6-1 1s6 11 10 10z"/>
  <path fill="#202020" d="m329 242 1-3-3-5h-1a10 10 0 0 1-2-1 38 38 0 0 0 5 9zm3-2-2-7-2-4v4l2 2 2 5zm5-6-1-6-1-5 2 2-1-3v-1h-1v2l-1-1v5l1 3 2 4zm3 0-1-9-2-4h-1l3 6 1 7zm-6 2-1-7a83 83 0 0 1-1-3l-1-1 1 3v2l1 2a26 26 0 0 1 1 4z"/>
  <path fill="#904720" d="M337 243v-8l-3-8 3 10c-1 1-2-3-2-3l1 7-1-1v1l2 2zm2-3-1-8-2-8 2 8 1 9-1-1v-1l1 1z"/>
  <path fill="#312317" d="m329 247-1 2-3-3 3 2v-3l1 2z"/>
  <path fill="#d2a567" d="M334 220h3a4 4 0 0 0 1-3v-3l1 3c0 1 0 4-3 5h-1l-1-2z"/>
  <path fill="#8f4620" d="m332 215 2 5 1 3-1-1-2-7z"/>
  <path fill="#1e2121" d="m304 218 11 15 13-15-8-8z"/>
  <path fill="#4d2a15" d="m318 209-1 2 1 4 2 2 3 2v-2l1-2h2l1-1 2-3v-2h-1l-2-5-1 2h-1l-2-1-1 3-3-1z"/>
  <path fill="#5c3818" d="m323 219 1-2v-6l-2-4s2 3 1 7l-1 5h1zm1-6s1 2 2 1v-5l-1-3v-1l1 4c1 1 2 5 0 6-1 1-2-2-2-2z"/>
  <path fill="#8f4620" d="m318 215 1-1h1l1 2 1 2 1 1v1h-1l-3-2-1-1v-3z"/>
  <path fill="#d2a567" d="M322 236c-1 1-3 0-4-1l-6-7-1-3 2 1 4-2v-1l5-3 3-1h5l2-3 2 5-1 5-2-1v6l-4-2v5a10 10 0 0 1-5-3s1 5 0 5z"/>
  <path fill="#8f4620" d="m321 230 1 1v4l-2-3-3-4 4 2zm11-13 1 8-4-3-4-6-1-1v-1l2 1 6 2zm-14 15c-1 1-1-1-2-1l-3-3a12 12 0 0 1-2-3l-1-1 1-1h1l5 5 1 4zm8 0-5-4-4-5v-2h1l8 11zm1-3-3-2v-3l3 5zm2-1-4-5-2-2-1-1h1v-1l1-1 5 8v2z"/>
  <path fill="#ab6d29" d="M318 235h-1a21 21 0 0 1-10-7l-3-5 1-2 10 11 3 3z"/>
  <path fill="#8f4620" d="M318 235h-1l-7-5a33 33 0 0 1-5-7v-2l1-1 7 10 5 5z"/>
  <path fill="#4d2a15" d="m325 231-4-3a24 24 0 0 1-3-6l1-1v-2l2 1 2 3 1 1 1 4-2-2 2 5zm-4-1v1h-1a16 16 0 0 0-2-3l-1 2-3-3-2-4v-5 2l4 4h1l2 4 2 2zm-14-7 6 8a17 17 0 0 0 5 4l-8-10-3-1zm22 3a12 12 0 0 1-3-3l-2-5v-3l4 4 1 3-2-1c-1 1 2 5 2 5zm3-3-2-2a15 15 0 0 1-1-3l-1-3v-4h1l2 3 1 3v6zm-23 8a42 42 0 0 1-4-6l-1-3 1 1 5 7 4 4 1 3-6-6z"/>
  <path fill="#202020" d="m314 236-6-6a47 47 0 0 1-5-7l1-1a46 46 0 0 0 10 14zm4-1-6-6-3-5 2 1 2 4 5 6zm0-7-4-4-2-4 4 3h1v5zm0-11v4a16 16 0 0 0 4 4l-2-2-1-3 2 1 3 3-2-4a54 54 0 0 0-4-3z"/>
  <path fill="#202020" d="m327 223-2-4-1-6v3l-1 4h-2 2l1-2 1 3 2 2z"/>
  <path fill="#202020" d="M324 213s2 3 3 2v-4h2v-2l3 6 2 6-3-6-2-4a5 5 0 0 0-1 3l2 4 1 3-2-2-1-2-2-1-2-1v-2z"/>
  <path fill="#171717" d="M317 223a27 27 0 0 0 4 7s-2-2-3-3a16 16 0 0 1-1-4z"/>
  <path fill="#8f4620" d="M330 224h-1l1 2 1 1v-3h-1z"/>
  <path fill="#d2a567" d="m306 209-1 1-2 3 1 5 2 3c1 2 3 5 4 4l2-3v-3l1 2 3 2 2-3-4-10-1-1h-7z"/>
  <path fill="#ab6d29" d="m315 217 1 4v2l2-4v-11l-1-1-2 4v6zm-7-2 1 5 1 3 2-4-1-5-1-5-2 6z"/>
  <path fill="#45392d" d="M303 208s-4 4-3 7l1 4 1 6v-1l1-17z"/>
  <path fill="#ab6d29" d="M303 208s-3 4-3 7l1 4 1 5h2l2-3-1-2a8 8 0 0 1-1-2l-1-1 1-4v-4h-2z"/>
  <path fill="#dbad6c" d="M317 215h-2v-2l2 2z"/>
  <path fill="#d2a567" d="m303 209-2 7 2 6v-9l1-3v-2h-1z"/>
  <path fill="#8f4620" d="M308 210v1l-2 2-1 3 1-2h1l1 2-1 2v2-2l1-1 1 2v-2l1-2c1 0 1 0 0 0v-5h2a11 11 0 0 0-2-3l-2 3z"/>
  <path fill="#dbad6c" d="M317 218h-1l-1-1h1l1 1z"/>
  <path fill="#8f4620" d="M304 219v1l-1 2v-6l-1 1v-3l1-2-1 1a31 31 0 0 0-1 1l1-2 2-2v-2h1l1 2-1 1-1 3v5zm10-9v2l-1 2-1 3 1-2v-1l1 2 1 2v-1h1l1 1-1-1-1-1v-3l1 1 1 1v-7l-3 2z"/>
  <path fill="#1e2121" d="M325 206a24 24 0 0 0 1 7s-1-2-1-3l-2-4-1 2 1 4-1-3-1-2v2l1 3-1-1v-1 2l1 2-1-1-1-1 1 3 2 3-2-2c-1-2-2-8-1-9l1-1 1-5 1 4 2 1zm-9-1 1 1v1l-2 2-3 2v-1l2-2a7 7 0 0 0 2-2v-1zm-11 4 1 2 4-3 1-1-1-1-4 3h-1zm0-3v2l-2 1v-2h1l1-1zm21-4 1 4 1 2-1-1-2-1 1-2v-2z"/>
  <path fill="#dbad6c" d="M302 207h2l1-1v2l1 1a4 4 0 0 0 2-1l2-2 1 3h2l2-2 1-1 1-1 1-6v-1l-2 1-1-1h-1l-1 1-1 1h-2v-1l-1-1-2 3h-2l-1 2-1 1-1 2v1z"/>
  <path fill="#8f4620" d="m314 202-1 3-1 4 3-4 1-6-2 3zm3-3v2l-1 4 1 2 1 1 3-2 1-3 1 2 2 1 1-1-2-4-1-4-1-2-3 1-2 3z"/>
  <path fill="#ab6d29" d="m322 195 1 4-1 4v-4l-1-3 1-1z"/>
  <path fill="#4d2a15" d="M326 203v2c-1 1-2-1-2-3l-1-4-1-3h1l3 8zm-7 4s2-1 3-6l-1-6-1 7a61 61 0 0 1-2 4l1-1v-1 3zm-3-8-1 2-3 2 2-3v-2l-1 2h-1v-2l2-2 1 2 1 1z"/>
  <path fill="#1e2121" d="M325 194a18 18 0 0 0 1 9s-2-3-2-3l-1-3a3 3 0 0 0-1-1l-1-1 1-1v-1l1 1h2zm-6 9 1-4 1-4h-2l-1-2v3c0 2-2 3-2 3h2l1-2v6z"/>
  <path fill="#8f4620" d="m301 207 2-3 2-4h1a4 4 0 0 0 2-1 7 7 0 0 0 1-3l1 3 2 1-1 3-1 3v-3l-1 1-1 2 1-3v-1h-1l-1 1 1-1a6 6 0 0 1 1-2l1-1h-1l-1 1-1 1-1 3a17 17 0 0 1-1 2l-1 1 1-3 1-3h-1l-2 3-1 3h-1z"/>
  <path fill="#874f20" d="m326 192-1 2a4 4 0 0 1-3-1v-1h4z"/>
  <path fill="#b27129" d="m306 195-1 2-1 3h1l1-4v-1z"/>
  <path fill="#dbad6c" d="M318 193s0 6-2 6-2-3-2-3-1 4-3 4l-2-4-1 3c-2 2-4 1-4 1s2-2 2-5h1l1-2c1 1 4-1 4-1l1-1 1-1a4 4 0 0 0 1-1l3 2v2z"/>
  <path fill="#b27129" d="m311 187 3 3h1v5-2l1-1 1 5 1-4c0-2 0 0 0 0l3 3c2-1 1-3 1-4l-1-3-6-4v1l-4 1z"/>
  <path fill="#8f4620" d="m320 186 1 2v6l-3-1v-4a8 8 0 0 1-1-3v-2h1l2 2z"/>
  <path fill="#4d2a15" d="m320 185 2 3 3 4h1a3 3 0 0 1-3 1l-2-5-3-3 1-1 1 1z"/>
  <path fill="#1e2121" d="m318 182 3 4 3 4 2 2h-2a5 5 0 0 1-1-2 35 35 0 0 0-2-4l-3-2 2 3a7 7 0 0 1 1 3l-1-2-3-3 2 2 1 4-2-3-2-2-1-2h2l1-2z"/>
  <path fill="#8f4620" d="M312 187h4v1l-1 2v-1l-3-2z"/>
  <path fill="#b27129" d="M313 191v3c0 3-1 5-2 5v-4l-1 1 1-2v-1l1-2h1z"/>
  <path fill="#8f4620" d="m310 192-1 1-1 1v1l-2 3 3-3 1-1 1-1v1l1 2 1-2v-3h-1l-1-1-1 2z"/>
  <path fill="#dbad6c" d="M318 181v2l-2 1a5 5 0 0 1-1-1l-4-1-2-1h-1v-1h3l3 1 1 1h2l1-1z"/>
  <path fill="#ab6d29" d="M318 181v1h-2l-4-1-3-1h-1 5l4 1h1z"/>
  <path fill="#4d2a15" d="M308 180h1v-1 1h-1z"/>
  <path fill="#dbad6c" d="m315 184 1 3-2-1-5-2-2-1v-1l1-1 2 1 3 1 2 1z"/>
  <path fill="#dbad6c" d="m312 186 2 4-5-3-2 3-5-2 4-4h3l3 1v1z"/>
  <path fill="#ab6d29" d="m311 182 3 1 3 1h-2l-2-1-2-1z"/>
  <path fill="#4d2a15" d="M308 181h3v1l-2-1-1 1v-1z"/>
  <path fill="#ab6d29" d="m315 186 1 1h-1a3 3 0 0 1-2 0l-3-2a18 18 0 0 0-3-1h-1l1-1 3 1 3 1 2 1zm-5 2 1 3-1 1-1 1v-1h-1v-1l-2-1 2-2v-1l2 1z"/>
  <path fill="#4d2a15" d="M307 183h1l3 1h1-1l3 1a6 6 0 0 1 2 1l-2-1a17 17 0 0 0-3-1h-5 1v-1z"/>
  <path fill="#ab6d29" d="M314 190v1l-3-1-1-1a14 14 0 0 0-2-2c-1 0 0 0 0 0l4 1a13 13 0 0 1 2 2z"/>
  <path fill="#4d2a15" d="m314 190-5-3 1-1h-2l-3-1v1l-1 1a5 5 0 0 1 3-1l1 2-2 2 2-2 1 1v-1l-1-1 3 1 3 2z"/>
  <path fill="#dbad6c" d="M308 187s3 1 3 4-2 2-3 1l1 1 1-3-1-2a12 12 0 0 0-1-1z"/>
  <path fill="#6c3f18" d="M296 180v2l-3 4-3 4 1 1 5-6 1-4-1-1z"/>
  <path fill="#dbad6c" d="m306 176 1 5c0 3-5 6-5 6l-6 4h-5v-2l1-1 2-2 2-2v-4l1 1v4l1-2 3-1 1-1v-6h1v2l1 3 1-1 1-2v-1z"/>
  <path fill="#904720" d="M307 192v2l-1 2v-2l-2-1-1-1 2-1 2 1z"/>
  <path fill="#ab6d29" d="M306 192h1v-1 1l-2-1h-2 1l1 1h1z"/>
  <path fill="#904720" d="M297 188h1l3-1 2-2c1 0 3-2 4-5l-1-4s4 3 1 8c-2 3-4 3-4 3h4l-1 3 3 1h-4l-3 1h-5l-4-1 1-2c1-2 3-1 3-1z"/>
  <path fill="#ab6d29" d="m304 180 2-3v-1 2l-2 2z"/>
  <path fill="#904720" d="M303 177v6c-1 2-6 4-6 4s4-2 5-5l1-4v-1z"/>
  <path fill="#1e2121" d="m298 188 3-1 2-2-1 1h-1l-1 1-2 1zm4-6 1-4-1-3 1 3-1 4zm2 1 2-2v-2 2l-2 2zm-1 9 2-1 1 1-2-1-1 1zm-3-3 4-1 3-1-3 3-3 1 3-2h-4z"/>
  <path fill="#fff" d="M296 186a3 3 68 0 1-3 4"/>
  <path fill="#f16e16" d="M296 186a2 2 68 0 1-3 4"/>
  <path d="M295 187a1 1 0 1 1-1 2"/>
  <path fill="#d5d3ca" d="M295 189v-1 1z"/>
  <path fill="#ab6d29" d="m297 184 2-3v-4l1 2v4l1-1c1-1 2-5 1-7v4c0 3-1 3-3 5a10 10 0 0 0-4 4 19 19 0 0 1-2 3l1-3 2-3 1-1z"/>
  <path fill="#904720" d="m296 185 1-3-1-2 1 2-1 3z"/>
  <path fill="#4d2a15" d="m299 183 1-3-1-2 1 2-1 3z"/>
  <path fill="#ab6d29" d="M292 191v-1l1-3a13 13 0 0 0 3-2v-5s1 2-1 4a16 16 0 0 1-3 4l-1 2v1h1z"/>
  <path fill="#6c4119" d="M306 196v-2a3 3 0 0 0-2-1l-2-1 1 1 2 1 1 2z"/>
  <path fill="#6c4119" d="m306 196 1-2v-2l1 1s-1 3-3 3z"/>
  <path fill="#bf802d" d="m295 195 1 1 1 1 3-1 1-1-1-2h-2l-3 2z"/>
  <path fill="#f9c83a" stroke="#8f4620" stroke-width=".4" d="m304 194-1-1-1-1h-4l-1 1a22 22 0 0 1-3-1l-2-1h-1l-2 1v1c1 0 0 0 0 0s-3 1-4 4c0 3 5 7 7 5 0 0-3-2-2-4 0-1 2-3 4-3l3-1c1 0 3-1 4 1 1 1-5 2-5 2l1 1s7-2 7-4z"/>
  <path fill="#fcf3d8" d="M289 201s-3-1-3-4c1-3 4-4 4-4l1-2a2 2 0 0 1 2 1h1s-5 3-5 6v3z"/>
  <path fill="#fdeaaf" d="M304 194h-1c0-1-2-2-3-1h-5l-4-2-1 1h-1l2-1 6 1h3l4 2z"/>
  <path fill="#513625" d="m295 196 2-1 3-1-2 2h-3z"/>
  <path fill="#f9c83a" d="m291 202-3-1c-2-1-2-3-2-3s-1-2 1-4l2-1-2 1v2l-1 1v1l1 2 2 1 2 1z"/>
  <path fill="#8b5122" d="M290 191v1-1 1-1h-1 1-1 1-1 1-1 1-1 1-1 1-1a5 5 0 0 0 0 1v1h2l-1-1v1a1 1 0 0 1-1 0v-1a3 3 0 0 1 1 0v-1h-1l1 1z"/>
  <path fill="#f9c83a" d="m295 194-4 1h5c1 0 4-2 5 0l-5 2 4-1 2-1v-1l-1-1h-3l-1 1h-2z"/>
  <path fill="#8f4620" d="m290 200 1 2h-1c-2 0-3-1-4-4v2l1 1 2 1h3l-1-1-2-2 1 1z"/>
  <path fill="#fcca3d" d="M302 233v1h-1v-2zm-5-35-1-1h-1l2 2z"/>
  <path fill="#816c2a" d="m302 236-2-1a10 10 0 0 0-2-1l2 1a14 14 0 0 1 2 1zm0-4h-3a4 4 0 0 0-1 1 4 4 0 0 1 2 0 23 23 0 0 1 2 0v-1zm0-2-3 1-2 1 1 1v-1a17 17 0 0 1 3-2h1zm-2-3v1a9 9 0 0 1-1 1 86 86 0 0 1-2 3 220 220 0 0 0 2-3l1-1v-1zm-2-1a4 4 0 0 1 0 2l-1 2-1 1v1l2-4v-1a4 4 0 0 0 0-1zm-2 0a9 9 0 0 0 0 1l-1 1v3l1-2v-4zm-2 0v3a52 52 0 0 0-1 2h1v-5zm-2 0a13 13 0 0 0 0 3 14 14 0 0 0 0 2 23 23 0 0 1 1-2v-3h-1zm-1 0a9 9 0 0 1 0 2l-1 2v1l1-3a9 9 0 0 0 0-2zm-2 0v3a6 6 0 0 1-1 1 10 10 0 0 1-1 1l2-2 1-2v-1h-1zm-1 0a7 7 0 0 1-1 2l-1 1a12 12 0 0 1-1 0l1 1 2-2a8 8 0 0 0 1-2h-1zm-1-1a6 6 0 0 1-1 1l-1 1h-1l1 1v-1h1l1-1v-1zm-1-1-1 1a7 7 0 0 1 0 1h-1 1l2-2h-1zm0-1v1h-1a2 2 0 0 1-1 1h1l1-1v-1zm0 0h-2a2 2 0 0 1 0 1l2-1zm-1-2v1h-1v1a2 2 0 0 0 1-1 4 4 0 0 0 1 0l-1-1zm0-2v1l-1 1 1-1a8 8 0 0 1 1-1h-1zm11-13h2-2zm0-1h2v-1a1 1 0 0 1 1 0h-1l-1 1h-1zm0-1h1l1-1h1v-1h-1l-1 1a3 3 0 0 1-1 1zm0-1 1-1 2-2-2 1-2 1 1 1zm-1-2 3-2-1-1-3 3zm-2-2a21 21 0 0 1 3-2l-1 1-2 1zm-1-1a124 124 0 0 1 3-1v-1a113 113 0 0 0-3 2v1z"/>
  <path fill="#78732e" d="M295 195v1a17 17 0 0 1 2 2l2 4v1a10 10 0 0 1-3 5l-7 6a18 18 0 0 0-3 3 6 6 0 0 0-1 4 6 6 0 0 0 1 3 4 4 0 0 0 4 2l6-1 4 2c2 2 2 4 2 6v4a26 26 0 0 1-1 2l1-6c0-2 0-4-2-6a6 6 0 0 0-4-2l-6 1a4 4 0 0 1-3-2 6 6 0 0 1-1-3c0-2 0-3 2-5l7-6c2-2 4-4 4-7v-1l-2-5a17 17 0 0 0-2-2h-1z"/>
  <path fill="#a8ac71" d="M292 198h-1l1 1zm1 1z"/>
  <path fill="#78732e" d="M295 201h-1zm1 2-1-1v1zm0 1zm0 2v-1 1zm0 1v-1 1zm-12 14v-1 1z"/>
  <path fill="#fff" d="M284 222v1-1z"/>
  <path fill="#78732e" d="M284 224z"/>
  <path fill="#fff" d="M284 225zm0 1zm1 2v-1h-1l1 1z"/>
  <path fill="#a8ac71" d="m286 230-1-1 1 1zm1 1c-1-1 0 0 0 0zm10 1c-1 0 0 0 0 0z"/>
  <path fill="#fff" d="m298 233-1-1h1z"/>
  <path fill="#a8ac71" d="M298 233zm0 1z"/>
  <path fill="#fff" d="m297 236 1-1h-1v1zm-14-52z"/>
  <path fill="#f9c83a" d="M295 195z"/>
  <path fill="#8f4620" d="M295 195h-1 1z"/>
  <path fill="#977c2e" d="M301 239h1-1z"/>
</svg>
