<svg xmlns="http://www.w3.org/2000/svg" width="20" height="20" viewBox="0 0 20 20">
    <g transform="matrix(0.8333333333333334,0,0,0.8333333333333334,0,0)">
        <path
            d="M23.89.55A1,1,0,0,0,23,0H1A1,1,0,0,0,.11.55,1,1,0,0,0,.2,1.6L9,13.42V22a2,2,0,0,0,2,2,2,2,0,0,0,1.2-.4l2-1.5a2,2,0,0,0,.8-1.6V13.42L23.8,1.6A1,1,0,0,0,23.89.55ZM5.42,2.2,9.36,7.45a.54.54,0,0,1,.1.3V9a.49.49,0,0,1-.34.47.48.48,0,0,1-.56-.17L3.62,2.8a.49.49,0,0,1-.05-.52A.5.5,0,0,1,4,2H5A.54.54,0,0,1,5.42,2.2Z"
            style="fill: #fafafa">
        </path>
    </g>
</svg>
