<svg viewBox="0 0 20 20" height="20" width="20" xmlns="http://www.w3.org/2000/svg">
    <g transform="matrix(0.8333333333333334,0,0,0.8333333333333334,0,0)">
        <path
            d="M0.750 2.998 A2.250 2.250 0 1 0 5.250 2.998 A2.250 2.250 0 1 0 0.750 2.998 Z"
            fill="none"
            stroke="#FAFAFA"
            stroke-linecap="round"
            stroke-linejoin="round"
            stroke-width="1.5"
        />
        <path
            d="M0.750 11.998 A2.250 2.250 0 1 0 5.250 11.998 A2.250 2.250 0 1 0 0.750 11.998 Z"
            fill="none"
            stroke="#FAFAFA"
            stroke-linecap="round"
            stroke-linejoin="round"
            stroke-width="1.5"
        />
        <path d="M0.750 20.998 A2.250 2.250 0 1 0 5.250 20.998 A2.250 2.250 0 1 0 0.750 20.998 Z"
            fill="none"
            stroke="#FAFAFA"
            stroke-linecap="round"
            stroke-linejoin="round"
            stroke-width="1.5"
        />
        <path
            d="M8.25 3.748L23.25 3.748"
            fill="none"
            stroke="#FAFAFA"
            stroke-linecap="round"
            stroke-linejoin="round"
            stroke-width="1.5"
        />
        <path
            d="M8.25 12.748L23.25 12.748"
            fill="none"
            stroke="#FAFAFA"
            stroke-linecap="round"
            stroke-linejoin="round"
            stroke-width="1.5"
        />
        <path
            d="M8.25 21.748L23.25 21.748"
            fill="none"
            stroke="#FAFAFA"
            stroke-linecap="round"
            stroke-linejoin="round"
            stroke-width="1.5"
        />
    </g>
</svg>